<svg xmlns="http://www.w3.org/2000/svg" version="1.1" viewBox="0.00 0.00 440.00 440.00" width="440.00" height="440.00">
<g stroke-width="2.00" fill="none" stroke-linecap="butt">
<path stroke="#c1999b" d="&#10;  M 427.61 224.24&#10;  A 210.50 210.50 0.0 0 0 217.11 13.74&#10;  A 210.50 210.50 0.0 0 0 6.61 224.24&#10;  A 210.50 210.50 0.0 0 0 217.11 434.74&#10;  A 210.50 210.50 0.0 0 0 427.61 224.24"/>
<path stroke="#c1999b" d="&#10;  M 421.13 224.24&#10;  A 204.01 204.01 0.0 0 0 217.12 20.23&#10;  A 204.01 204.01 0.0 0 0 13.11 224.24&#10;  A 204.01 204.01 0.0 0 0 217.12 428.25&#10;  A 204.01 204.01 0.0 0 0 421.13 224.24"/>
<path stroke="#818080" d="&#10;  M 219.11 55.04&#10;  Q 219.44 54.31 219.78 55.03&#10;  Q 224.77 65.46 234.88 69.07&#10;  Q 235.44 69.27 235.78 68.78&#10;  L 237.42 66.39&#10;  Q 237.82 65.82 237.15 65.61&#10;  Q 227.12 62.47 222.27 51.94&#10;  A 0.49 0.49 0.0 0 1 222.71 51.25&#10;  L 236.24 51.25&#10;  Q 236.72 51.25 236.72 50.77&#10;  L 236.76 48.01&#10;  Q 236.77 47.50 236.26 47.50&#10;  L 221.51 47.51&#10;  Q 221.00 47.51 221.00 47.01&#10;  L 221.00 39.46&#10;  Q 221.01 38.93 221.54 38.95&#10;  L 234.45 39.31&#10;  Q 235.23 39.33 235.23 38.55&#10;  L 235.24 36.04&#10;  Q 235.24 35.34 234.54 35.33&#10;  L 204.01 34.97&#10;  A 0.52 0.52 0.0 0 0 203.49 35.49&#10;  L 203.52 38.51&#10;  Q 203.52 39.00 204.01 39.00&#10;  L 216.79 39.00&#10;  A 0.53 0.53 0.0 0 1 217.32 39.55&#10;  L 217.06 46.50&#10;  Q 217.03 47.27 216.25 47.27&#10;  L 202.51 47.24&#10;  Q 202.02 47.24 202.02 47.74&#10;  L 202.00 50.45&#10;  Q 202.00 50.91 202.46 50.93&#10;  L 215.51 51.33&#10;  Q 216.25 51.35 215.98 52.04&#10;  Q 212.29 61.69 201.09 65.64&#10;  Q 200.92 65.71 200.99 65.88&#10;  Q 201.71 67.47 203.11 68.88&#10;  Q 203.16 68.93 203.22 68.91&#10;  Q 214.53 65.14 219.11 55.04"/>
<path stroke="#818080" d="&#10;  M 166.1060 49.4640&#10;  A 0.27 0.27 0.0 0 0 165.9723 49.1063&#10;  L 155.1255 44.1632&#10;  A 0.27 0.27 0.0 0 0 154.7679 44.2969&#10;  L 153.4740 47.1360&#10;  A 0.27 0.27 0.0 0 0 153.6077 47.4937&#10;  L 164.4545 52.4368&#10;  A 0.27 0.27 0.0 0 0 164.8121 52.3031&#10;  L 166.1060 49.4640"/>
<path stroke="#818080" d="&#10;  M 151.21 61.35&#10;  Q 156.16 57.13 158.88 51.24&#10;  Q 159.32 50.30 158.28 50.30&#10;  L 156.25 50.28&#10;  Q 155.58 50.27 155.22 50.84&#10;  L 151.99 55.89&#10;  Q 151.44 56.76 151.07 55.80&#10;  L 147.64 46.70&#10;  A 1.29 1.28 -19.3 0 0 146.05 45.94&#10;  L 144.85 46.33&#10;  Q 143.59 46.74 144.07 47.97&#10;  L 148.16 58.55&#10;  A 1.25 1.24 -31.0 0 1 147.80 59.96&#10;  Q 141.80 64.93 135.03 68.42&#10;  Q 134.36 68.77 134.98 69.20&#10;  L 137.17 70.71&#10;  Q 137.65 71.04 138.14 70.75&#10;  L 141.44 68.80&#10;  A 0.84 0.84 0.0 0 1 142.64 69.23&#10;  L 148.27 83.99&#10;  Q 148.49 84.58 149.13 84.50&#10;  Q 151.64 84.17 151.63 82.37&#10;  Q 151.63 81.73 152.22 81.50&#10;  L 166.14 76.11&#10;  Q 166.74 75.87 167.28 76.24&#10;  Q 168.81 77.30 170.72 76.06&#10;  Q 171.31 75.67 171.06 75.01&#10;  L 164.34 57.44&#10;  Q 164.10 56.83 163.49 57.06&#10;  L 151.43 61.71&#10;  Q 150.26 62.15 151.21 61.35"/>
<path stroke="#818080" d="&#10;  M 141.4485 52.1873&#10;  A 0.27 0.27 0.0 0 0 141.2668 51.8515&#10;  L 138.2385 50.9487&#10;  A 0.27 0.27 0.0 0 0 137.9027 51.1303&#10;  L 134.4915 62.5727&#10;  A 0.27 0.27 0.0 0 0 134.6732 62.9085&#10;  L 137.7015 63.8113&#10;  A 0.27 0.27 0.0 0 0 138.0373 63.6297&#10;  L 141.4485 52.1873"/>
<path stroke="#818080" d="&#10;  M 302.3136 69.9381&#10;  A 0.90 0.90 0.0 0 0 301.8224 68.7639&#10;  L 269.2920 55.4222&#10;  A 0.90 0.90 0.0 0 0 268.1178 55.9134&#10;  L 267.1464 58.2819&#10;  A 0.90 0.90 0.0 0 0 267.6376 59.4561&#10;  L 300.1680 72.7978&#10;  A 0.90 0.90 0.0 0 0 301.3422 72.3066&#10;  L 302.3136 69.9381"/>
<path stroke="#818080" d="&#10;  M 94.52 84.85&#10;  A 0.42 0.42 0.0 0 1 94.54 84.27&#10;  L 100.26 78.85&#10;  A 0.42 0.42 0.0 0 0 100.28 78.25&#10;  L 98.46 76.35&#10;  A 0.42 0.42 0.0 0 0 97.88 76.33&#10;  L 91.97 81.70&#10;  A 0.42 0.42 0.0 0 1 91.36 81.65&#10;  L 89.70 79.56&#10;  A 0.42 0.42 0.0 0 0 89.08 79.52&#10;  L 86.85 81.69&#10;  A 0.42 0.42 0.0 0 0 86.86 82.30&#10;  L 88.77 84.10&#10;  A 0.42 0.42 0.0 0 1 88.76 84.72&#10;  L 81.77 91.25&#10;  A 0.42 0.42 0.0 0 1 81.18 91.24&#10;  L 79.25 89.20&#10;  A 0.42 0.42 0.0 0 0 78.64 89.19&#10;  L 76.61 91.27&#10;  A 0.42 0.42 0.0 0 0 76.60 91.84&#10;  L 78.35 93.78&#10;  A 0.42 0.42 0.0 0 1 78.33 94.37&#10;  L 72.63 99.71&#10;  A 0.42 0.42 0.0 0 0 72.60 100.30&#10;  L 74.35 102.30&#10;  A 0.42 0.42 0.0 0 0 74.95 102.34&#10;  L 80.82 96.95&#10;  A 0.42 0.42 0.0 0 1 81.41 96.98&#10;  L 83.52 99.35&#10;  A 0.42 0.42 0.0 0 0 84.10 99.39&#10;  L 86.39 97.48&#10;  A 0.42 0.42 0.0 0 0 86.42 96.86&#10;  L 84.10 94.47&#10;  A 0.42 0.42 0.0 0 1 84.11 93.87&#10;  L 91.16 87.26&#10;  A 0.42 0.42 0.0 0 1 91.77 87.30&#10;  L 93.87 89.82&#10;  A 0.42 0.42 0.0 0 0 94.49 89.85&#10;  L 96.63 87.77&#10;  A 0.42 0.42 0.0 0 0 96.65 87.19&#10;  L 94.52 84.85"/>
<path stroke="#818080" d="&#10;  M 351.05 93.33&#10;  L 354.89 89.53&#10;  A 0.88 0.87 -45.2 0 0 354.89 88.28&#10;  L 353.26 86.69&#10;  A 0.77 0.77 0.0 0 0 352.17 86.70&#10;  L 348.17 90.77&#10;  A 0.70 0.69 -45.3 0 1 347.19 90.78&#10;  L 337.90 81.81&#10;  Q 337.46 81.38 337.02 81.82&#10;  L 324.31 94.94&#10;  Q 323.76 95.51 324.37 96.02&#10;  L 326.16 97.52&#10;  Q 326.69 97.96 327.19 97.50&#10;  L 328.00 96.77&#10;  A 0.55 0.54 -43.8 0 1 328.74 96.78&#10;  L 335.49 103.26&#10;  Q 335.85 103.61 335.50 103.96&#10;  L 327.45 112.24&#10;  A 0.79 0.79 0.0 0 0 327.45 113.34&#10;  L 329.20 115.10&#10;  Q 329.67 115.58 330.14 115.10&#10;  L 338.31 106.61&#10;  Q 338.60 106.31 338.91 106.59&#10;  L 345.60 112.89&#10;  A 0.93 0.92 36.6 0 1 345.77 114.02&#10;  Q 344.65 115.96 347.05 117.44&#10;  A 0.79 0.79 0.0 0 0 348.03 117.31&#10;  L 360.67 104.25&#10;  A 0.42 0.42 0.0 0 0 360.66 103.66&#10;  L 351.06 94.46&#10;  A 0.79 0.79 0.0 0 1 351.05 93.33"/>
<path stroke="#cd9598" d="&#10;  M 127.67 114.19&#10;  C 150.82 124.87 174.63 136.76 194.42 150.09&#10;  Q 200.95 154.49 208.11 160.61&#10;  Q 213.20 164.95 216.67 170.29&#10;  A 0.51 0.51 0.0 0 0 217.52 170.30&#10;  Q 220.93 165.38 225.88 160.89&#10;  Q 233.15 154.31 242.16 148.50&#10;  Q 269.64 130.80 302.17 116.40&#10;  Q 304.61 115.33 306.79 113.99&#10;  Q 307.26 113.70 306.83 113.35&#10;  Q 301.16 108.71 296.80 105.85&#10;  Q 253.25 77.27 201.63 82.49&#10;  C 174.57 85.22 148.69 96.29 127.57 113.31&#10;  A 0.52 0.52 0.0 0 0 127.67 114.19"/>
<path stroke="#818080" d="&#10;  M 106.60 94.17&#10;  Q 110.68 95.77 113.96 97.53&#10;  Q 114.78 97.96 115.19 97.14&#10;  L 115.91 95.72&#10;  Q 116.48 94.61 115.32 94.13&#10;  L 108.02 91.09&#10;  Q 107.56 90.91 107.21 91.25&#10;  Q 106.34 92.12 105.84 93.14&#10;  Q 105.60 93.63 105.25 93.21&#10;  L 101.51 88.69&#10;  A 0.63 0.63 0.0 0 0 100.59 88.64&#10;  L 93.32 95.48&#10;  Q 92.83 95.95 92.44 95.40&#10;  L 90.81 93.16&#10;  A 0.55 0.54 51.3 0 0 90.02 93.07&#10;  L 87.89 94.91&#10;  Q 87.34 95.39 87.86 95.90&#10;  L 89.67 97.70&#10;  Q 90.22 98.25 89.66 98.78&#10;  L 82.34 105.64&#10;  Q 81.76 106.18 82.32 106.73&#10;  L 83.92 108.31&#10;  Q 84.31 108.70 84.71 108.32&#10;  L 91.58 101.85&#10;  A 0.73 0.72 50.0 0 1 92.66 101.95&#10;  C 96.11 106.70 97.28 112.35 95.35 117.78&#10;  Q 94.75 119.49 94.13 121.14&#10;  Q 93.77 122.07 94.75 122.26&#10;  L 96.19 122.54&#10;  Q 97.09 122.72 97.52 121.89&#10;  Q 103.41 110.43 95.34 99.28&#10;  Q 95.00 98.82 95.42 98.42&#10;  L 100.04 94.02&#10;  Q 100.58 93.50 101.05 94.08&#10;  Q 104.25 98.01 107.98 102.77&#10;  Q 109.96 105.30 109.25 106.36&#10;  Q 107.98 108.26 105.47 109.98&#10;  A 0.54 0.54 0.0 0 0 105.55 110.91&#10;  L 107.15 111.65&#10;  Q 107.95 112.02 108.66 111.51&#10;  C 111.89 109.22 114.81 105.92 112.19 102.04&#10;  Q 109.49 98.05 106.32 94.59&#10;  Q 105.57 93.77 106.60 94.17"/>
<path stroke="#818080" d="&#10;  M 91.8820 108.3560&#10;  A 0.61 0.61 0.0 0 0 91.1762 107.8599&#10;  L 88.9301 108.2519&#10;  A 0.61 0.61 0.0 0 0 88.4341 108.9577&#10;  L 89.9780 117.8040&#10;  A 0.61 0.61 0.0 0 0 90.6838 118.3001&#10;  L 92.9299 117.9081&#10;  A 0.61 0.61 0.0 0 0 93.4259 117.2023&#10;  L 91.8820 108.3560"/>
<path stroke="#818080" d="&#10;  M 69.45 151.24&#10;  A 0.65 0.65 0.0 0 1 68.58 151.56&#10;  L 48.51 141.91&#10;  A 0.65 0.65 0.0 0 1 48.21 141.04&#10;  L 51.66 134.04&#10;  A 0.65 0.65 0.0 0 0 51.37 133.17&#10;  L 49.09 132.01&#10;  A 0.65 0.65 0.0 0 0 48.21 132.31&#10;  L 39.39 150.83&#10;  A 0.65 0.65 0.0 0 0 39.71 151.70&#10;  L 42.00 152.75&#10;  A 0.65 0.65 0.0 0 0 42.87 152.42&#10;  L 45.78 145.91&#10;  A 0.65 0.65 0.0 0 1 46.65 145.59&#10;  L 66.84 155.17&#10;  A 0.65 0.65 0.0 0 1 67.14 156.04&#10;  L 63.09 164.39&#10;  A 0.65 0.65 0.0 0 0 63.39 165.25&#10;  L 65.62 166.33&#10;  A 0.65 0.65 0.0 0 0 66.49 166.03&#10;  L 77.07 144.00&#10;  A 0.65 0.65 0.0 0 0 76.76 143.13&#10;  L 74.47 142.03&#10;  A 0.65 0.65 0.0 0 0 73.60 142.34&#10;  L 69.45 151.24"/>
<path stroke="#cd9598" d="&#10;  M 354.28 185.31&#10;  Q 353.57 182.46 352.67 179.75&#10;  Q 344.20 154.14 326.89 133.12&#10;  Q 326.24 132.34 325.28 132.64&#10;  Q 272.61 148.71 231.39 186.40&#10;  Q 224.16 193.01 217.49 200.85&#10;  A 0.34 0.33 43.4 0 1 216.99 200.86&#10;  Q 172.51 152.19 108.84 132.64&#10;  Q 108.35 132.49 107.95 132.82&#10;  Q 106.61 133.95 105.51 135.36&#10;  Q 89.62 155.71 81.57 179.71&#10;  A 0.36 0.35 -85.4 0 0 81.96 180.18&#10;  C 127.49 172.55 177.21 177.43 215.97 203.94&#10;  A 0.98 0.98 0.0 0 0 217.06 203.95&#10;  C 256.32 178.04 307.67 175.49 353.68 185.92&#10;  Q 354.48 186.10 354.28 185.31"/>
<path stroke="#818080" d="&#10;  M 392.75 153.39&#10;  Q 393.67 153.61 394.29 152.87&#10;  Q 395.90 150.95 397.25 149.04&#10;  A 0.89 0.89 0.0 0 0 397.20 147.94&#10;  L 395.82 146.35&#10;  A 0.68 0.68 0.0 0 0 394.78 146.37&#10;  L 391.46 150.48&#10;  A 0.32 0.32 0.0 0 1 390.92 150.41&#10;  L 388.38 144.85&#10;  Q 388.26 144.58 388.52 144.44&#10;  Q 391.46 142.92 392.18 138.98&#10;  Q 392.27 138.48 391.88 138.15&#10;  Q 391.14 137.52 390.17 137.19&#10;  Q 389.62 137.00 389.34 137.51&#10;  L 387.37 141.02&#10;  A 0.37 0.37 0.0 0 1 386.71 140.99&#10;  L 384.55 136.42&#10;  A 0.83 0.82 65.0 0 0 383.46 136.02&#10;  L 377.38 138.77&#10;  Q 376.60 139.12 377.00 139.88&#10;  L 377.86 141.52&#10;  Q 378.26 142.27 379.02 141.90&#10;  L 382.05 140.45&#10;  Q 382.68 140.16 382.97 140.79&#10;  L 393.69 164.37&#10;  Q 393.89 164.79 393.46 164.98&#10;  L 389.92 166.61&#10;  Q 389.43 166.84 389.62 167.35&#10;  L 390.44 169.52&#10;  Q 390.75 170.32 391.52 169.97&#10;  L 397.85 167.11&#10;  A 0.65 0.64 -24.6 0 0 398.17 166.26&#10;  L 396.20 161.88&#10;  A 0.41 0.40 -5.8 0 1 396.66 161.32&#10;  L 401.20 162.33&#10;  A 0.52 0.52 0.0 0 0 401.83 161.77&#10;  L 401.56 159.08&#10;  Q 401.49 158.41 400.82 158.34&#10;  L 394.91 157.76&#10;  Q 394.37 157.70 394.13 157.22&#10;  L 392.43 153.79&#10;  Q 392.15 153.24 392.75 153.39"/>
<path stroke="#818080" d="&#10;  M 382.58 158.34&#10;  Q 380.70 157.08 379.02 155.35&#10;  A 1.16 1.14 68.3 0 0 378.22 155.00&#10;  Q 377.32 154.97 376.60 155.66&#10;  A 0.65 0.65 0.0 0 1 375.56 155.46&#10;  L 369.62 142.22&#10;  A 0.80 0.80 0.0 0 0 368.45 141.88&#10;  L 366.86 142.93&#10;  Q 366.23 143.35 366.55 144.03&#10;  L 372.49 156.98&#10;  A 0.42 0.41 -25.3 0 1 372.29 157.52&#10;  Q 369.38 158.96 366.49 160.04&#10;  Q 365.41 160.45 363.24 154.20&#10;  A 0.47 0.46 -35.7 0 0 362.43 154.07&#10;  L 360.90 156.07&#10;  Q 360.42 156.69 360.73 157.42&#10;  C 361.74 159.82 363.94 165.40 367.62 163.81&#10;  Q 370.72 162.47 373.46 161.12&#10;  A 0.79 0.78 64.4 0 1 374.53 161.50&#10;  L 380.35 174.39&#10;  Q 380.85 175.49 381.97 175.03&#10;  L 383.02 174.58&#10;  A 1.13 1.12 -24.3 0 0 383.60 173.05&#10;  Q 380.32 166.35 378.08 160.83&#10;  Q 376.77 157.63 379.52 159.74&#10;  Q 383.22 162.58 387.11 164.81&#10;  Q 387.60 165.09 387.95 164.65&#10;  Q 389.15 163.14 388.25 161.27&#10;  Q 384.29 153.02 380.85 144.94&#10;  Q 380.52 144.16 379.74 144.50&#10;  L 377.97 145.25&#10;  A 0.60 0.60 0.0 0 0 377.66 146.05&#10;  L 383.07 157.92&#10;  Q 383.57 159.00 382.58 158.34"/>
<path stroke="#818080" d="&#10;  M 33.15 157.55&#10;  A 0.62 0.62 0.0 0 0 32.91 158.28&#10;  L 33.70 160.42&#10;  A 0.62 0.62 0.0 0 0 34.60 160.73&#10;  L 41.05 156.77&#10;  A 0.62 0.62 0.0 0 0 41.25 155.92&#10;  L 39.98 153.81&#10;  A 0.62 0.62 0.0 0 0 39.11 153.62&#10;  L 33.15 157.55"/>
<path stroke="#818080" d="&#10;  M 41.71 164.49&#10;  A 0.50 0.50 0.0 0 0 41.55 165.10&#10;  L 42.59 167.37&#10;  A 0.50 0.50 0.0 0 0 43.33 167.58&#10;  L 49.71 163.21&#10;  A 0.50 0.50 0.0 0 0 49.86 162.53&#10;  L 48.43 160.25&#10;  A 0.50 0.50 0.0 0 0 47.72 160.11&#10;  L 41.71 164.49"/>
<path stroke="#818080" d="&#10;  M 57.17 161.86&#10;  A 0.60 0.60 0.0 0 0 56.48 161.64&#10;  L 54.02 162.52&#10;  A 0.60 0.60 0.0 0 0 53.72 163.42&#10;  L 61.40 174.75&#10;  A 0.60 0.60 0.0 0 0 62.14 174.96&#10;  L 64.61 173.83&#10;  A 0.60 0.60 0.0 0 0 64.85 172.94&#10;  L 57.17 161.86"/>
<path stroke="#cd9598" d="&#10;  M 190.79 300.99&#10;  Q 204.60 307.73 214.33 317.59&#10;  A 0.87 0.87 0.0 0 0 215.50 317.65&#10;  C 238.30 298.83 265.33 289.93 294.40 297.36&#10;  Q 311.88 301.83 328.02 313.10&#10;  Q 328.47 313.42 328.81 312.99&#10;  Q 364.08 267.72 359.05 209.52&#10;  A 1.48 1.47 10.0 0 0 358.19 208.30&#10;  C 312.41 187.23 261.01 198.07 217.97 222.71&#10;  A 1.34 1.34 0.0 0 1 216.56 222.66&#10;  C 191.42 206.17 162.06 195.70 131.91 194.36&#10;  Q 103.83 193.10 76.49 203.12&#10;  Q 75.99 203.30 75.92 203.82&#10;  Q 68.78 258.59 98.92 304.20&#10;  Q 99.35 304.85 100.05 304.50&#10;  C 128.77 290.10 161.66 286.78 190.79 300.99"/>
<path stroke="#cd9598" d="&#10;  M 213.35 339.53&#10;  A 0.73 0.73 0.0 0 1 212.33 339.53&#10;  Q 197.99 325.34 180.70 317.86&#10;  C 159.10 308.51 134.43 310.10 113.28 320.56&#10;  A 0.75 0.75 0.0 0 0 113.06 321.73&#10;  Q 115.94 324.89 118.93 327.69&#10;  C 175.32 380.50 260.75 379.68 316.36 326.74&#10;  A 0.51 0.51 0.0 0 0 316.25 325.92&#10;  Q 303.48 319.16 288.49 316.19&#10;  C 260.67 310.67 233.72 319.65 213.35 339.53"/>
<path stroke="#818080" d="&#10;  M 320.65 348.42&#10;  Q 320.73 348.16 321.02 348.02&#10;  A 0.70 0.69 41.2 0 0 320.93 346.73&#10;  L 317.19 345.53&#10;  Q 316.24 345.23 315.75 346.10&#10;  L 315.10 347.27&#10;  Q 314.61 348.14 315.55 348.45&#10;  L 318.67 349.49&#10;  A 0.60 0.60 0.0 0 1 318.85 350.53&#10;  L 312.99 355.02&#10;  Q 312.49 355.41 312.88 355.90&#10;  L 314.10 357.44&#10;  A 0.68 0.68 0.0 0 0 315.06 357.55&#10;  L 329.56 345.98&#10;  Q 330.29 345.40 329.77 344.63&#10;  L 329.09 343.61&#10;  A 0.95 0.94 54.9 0 0 327.75 343.37&#10;  Q 324.38 345.86 321.10 348.72&#10;  Q 320.31 349.41 320.65 348.42"/>
<path stroke="#818080" d="&#10;  M 121.91 349.02&#10;  A 0.53 0.53 0.0 0 0 121.17 349.45&#10;  L 120.93 351.55&#10;  A 0.53 0.53 0.0 0 1 120.07 351.91&#10;  L 109.39 343.57&#10;  A 0.53 0.53 0.0 0 0 108.64 343.66&#10;  L 104.80 348.68&#10;  A 0.53 0.53 0.0 0 0 104.90 349.42&#10;  L 106.70 350.80&#10;  A 0.53 0.53 0.0 0 0 107.43 350.71&#10;  L 109.41 348.22&#10;  A 0.53 0.53 0.0 0 1 110.15 348.13&#10;  L 128.66 362.62&#10;  A 0.53 0.53 0.0 0 1 128.75 363.37&#10;  L 127.08 365.45&#10;  A 0.53 0.53 0.0 0 0 127.13 366.16&#10;  L 128.88 367.83&#10;  A 0.53 0.53 0.0 0 0 129.66 367.78&#10;  L 133.47 363.10&#10;  A 0.53 0.53 0.0 0 0 133.39 362.35&#10;  L 123.88 354.85&#10;  A 0.53 0.53 0.0 0 1 123.69 354.31&#10;  L 124.51 350.65&#10;  A 0.53 0.53 0.0 0 0 124.21 350.05&#10;  L 121.91 349.02"/>
<path stroke="#818080" d="&#10;  M 334.79 354.06&#10;  L 335.30 351.47&#10;  A 0.30 0.30 0.0 0 0 335.06 351.12&#10;  L 327.15 349.55&#10;  A 1.69 1.53 11.2 0 0 325.19 350.72&#10;  L 325.16 350.90&#10;  A 1.69 1.53 11.2 0 0 326.52 352.73&#10;  L 334.44 354.30&#10;  A 0.30 0.30 0.0 0 0 334.79 354.06"/>
<path stroke="#818080" d="&#10;  M 110.53 360.89&#10;  L 106.78 363.21&#10;  A 0.75 0.75 0.0 0 1 105.67 362.78&#10;  L 104.86 359.95&#10;  Q 104.72 359.43 104.18 359.48&#10;  L 102.28 359.63&#10;  Q 101.47 359.70 101.70 360.47&#10;  L 102.72 363.95&#10;  Q 102.90 364.59 102.26 364.75&#10;  Q 96.85 366.13 92.28 364.51&#10;  A 0.49 0.49 0.0 0 0 91.63 364.89&#10;  L 91.24 367.30&#10;  Q 91.14 367.87 91.71 368.01&#10;  C 100.52 370.21 108.52 367.25 115.10 361.37&#10;  A 1.05 1.04 44.1 0 0 115.07 359.79&#10;  L 110.54 356.01&#10;  A 0.53 0.52 -28.9 0 1 110.81 355.09&#10;  Q 112.29 354.88 113.30 353.95&#10;  Q 113.59 353.69 113.29 353.44&#10;  Q 112.31 352.64 111.74 351.46&#10;  Q 111.53 351.03 111.13 351.29&#10;  Q 105.00 355.25 98.10 355.56&#10;  Q 97.40 355.59 97.53 356.28&#10;  L 97.90 358.31&#10;  Q 98.09 359.31 99.08 359.09&#10;  L 106.59 357.44&#10;  Q 107.13 357.32 107.56 357.66&#10;  L 110.58 360.07&#10;  Q 111.14 360.51 110.53 360.89"/>
<path stroke="#818080" d="&#10;  M 322.00 361.24&#10;  L 322.01 355.88&#10;  Q 322.01 354.74 320.88 354.92&#10;  L 319.83 355.08&#10;  Q 318.49 355.29 318.67 356.63&#10;  Q 319.20 360.48 318.58 364.09&#10;  Q 318.46 364.81 319.17 364.97&#10;  L 320.71 365.30&#10;  Q 321.67 365.50 321.78 364.53&#10;  L 321.89 363.59&#10;  Q 321.99 362.77 322.71 363.17&#10;  Q 326.44 365.26 330.33 366.43&#10;  Q 330.86 366.59 330.79 367.14&#10;  Q 330.21 372.13 327.79 376.37&#10;  A 0.34 0.34 0.0 0 0 327.98 376.86&#10;  L 330.34 377.58&#10;  Q 330.80 377.72 331.03 377.30&#10;  Q 333.49 372.80 334.01 367.85&#10;  Q 334.07 367.32 334.60 367.37&#10;  Q 339.45 367.81 344.31 366.39&#10;  Q 344.76 366.26 344.75 365.79&#10;  L 344.74 362.73&#10;  A 0.35 0.35 0.0 0 0 344.26 362.41&#10;  Q 340.09 364.12 334.88 363.81&#10;  Q 334.38 363.78 334.34 363.28&#10;  Q 334.06 359.50 332.70 355.49&#10;  Q 332.16 353.90 330.66 354.67&#10;  L 330.19 354.91&#10;  Q 328.98 355.53 329.51 356.79&#10;  Q 330.66 359.54 330.79 362.70&#10;  Q 330.82 363.29 330.26 363.12&#10;  Q 327.18 362.16 324.37 360.40&#10;  A 0.75 0.75 0.0 0 0 323.58 360.39&#10;  Q 322.96 360.76 322.54 361.40&#10;  Q 322.00 362.22 322.00 361.24"/>
<path stroke="#818080" d="&#10;  M 314.74 371.06&#10;  L 323.76 382.37&#10;  Q 324.24 382.96 324.85 382.50&#10;  L 326.19 381.48&#10;  Q 326.76 381.04 326.31 380.48&#10;  L 316.55 368.26&#10;  Q 315.63 367.10 316.94 367.80&#10;  L 320.79 369.83&#10;  A 0.15 0.15 0.0 0 0 321.01 369.70&#10;  L 320.99 367.20&#10;  Q 320.99 366.73 320.55 366.57&#10;  L 312.73 363.60&#10;  A 0.62 0.62 0.0 0 1 312.54 362.55&#10;  L 314.50 360.85&#10;  Q 315.23 360.21 314.61 359.47&#10;  L 313.71 358.39&#10;  Q 313.12 357.68 312.44 358.32&#10;  L 310.72 359.95&#10;  Q 310.26 360.39 309.87 359.89&#10;  L 306.01 354.99&#10;  A 0.82 0.82 0.0 0 0 304.84 354.88&#10;  L 303.52 356.03&#10;  Q 302.99 356.48 303.44 357.02&#10;  L 307.35 361.70&#10;  Q 307.76 362.20 307.26 362.61&#10;  Q 306.35 363.36 305.48 363.90&#10;  Q 303.26 365.24 305.78 367.18&#10;  A 1.04 1.03 31.6 0 0 307.34 366.81&#10;  Q 307.79 365.89 308.91 365.58&#10;  Q 309.44 365.43 309.68 365.93&#10;  Q 312.47 371.89 313.54 378.19&#10;  A 1.20 1.18 -81.6 0 0 314.18 379.06&#10;  L 316.36 380.16&#10;  Q 317.06 380.51 316.91 379.74&#10;  Q 316.09 375.50 314.37 371.27&#10;  Q 313.80 369.88 314.74 371.06"/>
<path stroke="#818080" d="&#10;  M 122.84 368.87&#10;  L 119.30 372.95&#10;  A 0.93 0.92 43.8 0 1 117.92 372.97&#10;  Q 117.12 372.12 116.03 371.77&#10;  Q 115.71 371.66 115.52 371.94&#10;  Q 114.81 372.99 115.11 374.19&#10;  Q 115.23 374.64 115.59 374.93&#10;  C 117.33 376.29 119.44 377.66 121.34 375.44&#10;  Q 124.54 371.70 127.25 368.28&#10;  A 0.64 0.63 -51.8 0 0 127.15 367.39&#10;  L 118.16 360.34&#10;  A 0.51 0.51 0.0 0 0 117.43 360.43&#10;  Q 112.75 366.49 107.46 373.18&#10;  Q 106.42 374.51 105.88 375.92&#10;  A 2.59 2.58 -58.2 0 0 106.53 378.72&#10;  Q 109.93 381.89 113.55 384.33&#10;  C 115.71 385.78 118.21 383.95 119.59 382.32&#10;  Q 120.61 381.12 119.69 379.85&#10;  L 119.44 379.51&#10;  Q 118.64 378.39 117.90 379.55&#10;  Q 117.06 380.86 115.71 381.44&#10;  Q 115.16 381.68 114.68 381.31&#10;  L 109.73 377.41&#10;  A 1.03 1.02 -52.0 0 1 109.56 375.97&#10;  L 117.96 365.26&#10;  A 0.83 0.82 -52.3 0 1 119.10 365.11&#10;  L 122.72 367.80&#10;  Q 123.35 368.28 122.84 368.87"/>
<path stroke="#818080" d="&#10;  M 285.17 383.60&#10;  L 286.29 384.29&#10;  Q 287.01 384.75 287.36 383.97&#10;  L 288.51 381.39&#10;  A 0.56 0.55 -67.5 0 0 288.21 380.65&#10;  Q 281.01 377.84 275.29 372.58&#10;  Q 274.45 371.80 273.57 372.54&#10;  L 272.51 373.46&#10;  A 0.82 0.82 0.0 0 0 272.49 374.69&#10;  Q 276.98 378.79 282.82 382.26&#10;  A 0.28 0.28 0.0 0 1 282.77 382.77&#10;  L 263.66 389.62&#10;  A 0.39 0.39 0.0 0 1 263.15 389.13&#10;  Q 265.07 382.95 265.88 376.88&#10;  Q 265.98 376.17 265.26 376.19&#10;  L 262.54 376.29&#10;  Q 261.92 376.31 261.89 376.93&#10;  Q 261.57 385.13 257.42 392.03&#10;  Q 257.02 392.71 257.73 393.04&#10;  L 259.78 393.99&#10;  A 0.90 0.90 0.0 0 0 260.92 393.65&#10;  L 261.90 392.07&#10;  Q 262.33 391.38 262.71 392.10&#10;  L 263.09 392.82&#10;  A 0.67 0.66 66.3 0 0 263.90 393.14&#10;  L 268.72 391.43&#10;  Q 269.26 391.24 269.37 391.80&#10;  Q 271.46 401.81 263.98 407.77&#10;  Q 263.33 408.29 264.03 408.74&#10;  L 265.70 409.82&#10;  A 1.20 1.19 -49.3 0 0 267.14 409.71&#10;  C 273.05 404.52 274.52 397.79 272.67 390.26&#10;  Q 272.61 389.99 272.86 389.90&#10;  L 280.97 387.08&#10;  Q 281.19 387.00 281.27 387.22&#10;  Q 283.12 392.34 283.97 397.99&#10;  C 284.24 399.75 283.45 400.59 281.81 400.92&#10;  Q 279.73 401.32 277.90 402.10&#10;  Q 277.67 402.20 277.83 402.39&#10;  L 279.76 404.65&#10;  Q 279.95 404.87 280.23 404.80&#10;  C 283.40 404.00 288.48 402.59 287.71 398.06&#10;  Q 286.65 391.75 284.21 384.35&#10;  Q 283.65 382.65 285.17 383.60"/>
<path stroke="#818080" d="&#10;  M 162.13 401.60&#10;  Q 161.35 401.32 161.62 400.53&#10;  L 169.87 376.25&#10;  A 0.91 0.90 18.5 0 0 169.30 375.11&#10;  L 167.62 374.54&#10;  A 0.93 0.93 0.0 0 0 166.44 375.12&#10;  L 158.09 399.63&#10;  Q 157.87 400.28 157.22 400.05&#10;  L 149.83 397.39&#10;  A 0.70 0.69 -70.9 0 1 149.41 396.52&#10;  L 155.48 378.70&#10;  Q 155.64 378.22 155.16 378.08&#10;  L 152.77 377.39&#10;  A 0.61 0.60 -72.3 0 0 152.03 377.78&#10;  L 144.85 398.96&#10;  A 0.48 0.47 -71.4 0 0 145.15 399.57&#10;  L 168.36 407.40&#10;  Q 168.79 407.54 168.79 407.99&#10;  Q 168.79 408.76 168.51 409.54&#10;  Q 168.25 410.28 169.00 410.52&#10;  L 170.82 411.11&#10;  Q 171.56 411.35 171.81 410.62&#10;  L 179.89 386.91&#10;  Q 180.08 386.34 179.50 386.16&#10;  L 177.21 385.46&#10;  Q 176.70 385.31 176.53 385.80&#10;  L 170.48 403.52&#10;  A 1.00 1.00 0.0 0 1 169.20 404.13&#10;  L 162.13 401.60"/>
<path stroke="#818080" d="&#10;  M 210.1629 387.2092&#10;  A 0.78 0.78 0.0 0 0 209.8979 386.1384&#10;  L 205.2570 383.3388&#10;  A 0.78 0.78 0.0 0 0 204.1862 383.6038&#10;  L 203.2771 385.1108&#10;  A 0.78 0.78 0.0 0 0 203.5421 386.1816&#10;  L 208.1830 388.9812&#10;  A 0.78 0.78 0.0 0 0 209.2538 388.7162&#10;  L 210.1629 387.2092"/>
<path stroke="#818080" d="&#10;  M 221.77 409.01&#10;  L 221.39 400.17&#10;  A 0.70 0.70 0.0 0 0 220.66 399.50&#10;  L 218.80 399.57&#10;  Q 217.74 399.61 217.74 398.55&#10;  L 217.73 394.14&#10;  Q 217.73 393.25 218.62 393.26&#10;  L 221.54 393.28&#10;  Q 222.63 393.29 222.53 392.21&#10;  L 222.45 391.25&#10;  A 1.16 1.16 0.0 0 0 221.25 390.19&#10;  L 218.27 390.29&#10;  Q 217.73 390.31 217.73 389.77&#10;  L 217.77 384.46&#10;  Q 217.77 383.90 217.22 383.87&#10;  L 215.40 383.74&#10;  Q 214.74 383.69 214.74 384.35&#10;  L 214.75 389.49&#10;  A 0.75 0.74 90.0 0 1 214.01 390.24&#10;  L 210.08 390.26&#10;  Q 209.42 390.26 209.45 390.92&#10;  L 209.52 392.65&#10;  Q 209.55 393.37 210.27 393.34&#10;  L 213.96 393.21&#10;  Q 214.73 393.18 214.73 393.96&#10;  L 214.76 398.62&#10;  Q 214.77 399.51 213.88 399.52&#10;  L 211.36 399.54&#10;  Q 210.77 399.55 210.77 400.14&#10;  L 210.75 413.86&#10;  Q 210.75 414.48 211.36 414.48&#10;  L 212.99 414.50&#10;  Q 213.74 414.51 213.75 413.76&#10;  L 213.76 412.23&#10;  A 0.52 0.52 0.0 0 1 214.28 411.72&#10;  L 221.02 411.74&#10;  Q 221.82 411.74 221.41 412.44&#10;  L 220.21 414.48&#10;  Q 219.75 415.27 220.51 415.76&#10;  L 221.39 416.34&#10;  Q 222.50 417.07 223.15 415.91&#10;  Q 225.98 410.85 226.48 405.33&#10;  Q 226.53 404.86 226.99 404.82&#10;  L 230.81 404.44&#10;  Q 231.50 404.37 231.50 405.06&#10;  L 231.55 412.74&#10;  Q 231.55 413.54 230.76 413.54&#10;  L 228.50 413.52&#10;  Q 227.23 413.52 227.59 414.73&#10;  L 227.77 415.32&#10;  Q 228.12 416.46 229.31 416.44&#10;  C 231.14 416.42 234.32 416.39 234.38 413.93&#10;  Q 234.69 399.28 234.24 384.52&#10;  Q 234.23 384.00 233.71 384.00&#10;  L 224.43 384.01&#10;  Q 223.70 384.01 223.71 384.74&#10;  Q 223.83 394.53 223.69 403.12&#10;  Q 223.64 406.12 222.75 409.13&#10;  Q 221.90 412.02 221.77 409.01"/>
<path stroke="#818080" d="&#10;  M 203.89 393.18&#10;  A 0.65 0.65 0.0 0 0 203.09 393.32&#10;  L 201.80 394.79&#10;  A 0.65 0.65 0.0 0 0 201.96 395.79&#10;  L 207.05 398.70&#10;  A 0.65 0.65 0.0 0 0 207.93 398.47&#10;  L 208.98 396.74&#10;  A 0.65 0.65 0.0 0 0 208.73 395.83&#10;  L 203.89 393.18"/>
<path stroke="#818080" d="&#10;  M 209.67 405.24&#10;  A 0.79 0.79 0.0 0 0 209.37 404.30&#10;  L 208.00 403.39&#10;  A 0.79 0.79 0.0 0 0 206.83 403.74&#10;  L 202.43 414.23&#10;  A 0.79 0.79 0.0 0 0 202.83 415.25&#10;  L 204.61 416.08&#10;  A 0.79 0.79 0.0 0 0 205.68 415.64&#10;  L 209.67 405.24"/>
<path stroke="#818080" d="&#10;  M 161.9832 61.6141&#10;  A 0.78 0.78 0.0 0 0 160.9747 61.1672&#10;  L 146.2341 66.8551&#10;  A 0.78 0.78 0.0 0 0 145.7872 67.8636&#10;  L 146.0968 68.6659&#10;  A 0.78 0.78 0.0 0 0 147.1053 69.1128&#10;  L 161.8459 63.4249&#10;  A 0.78 0.78 0.0 0 0 162.2928 62.4164&#10;  L 161.9832 61.6141"/>
<path stroke="#818080" d="&#10;  M 163.7611 66.3654&#10;  A 0.75 0.75 0.0 0 0 162.7922 65.9340&#10;  L 148.0976 71.5747&#10;  A 0.75 0.75 0.0 0 0 147.6662 72.5437&#10;  L 148.0389 73.5146&#10;  A 0.75 0.75 0.0 0 0 149.0078 73.9460&#10;  L 163.7024 68.3053&#10;  A 0.75 0.75 0.0 0 0 164.1338 67.3363&#10;  L 163.7611 66.3654"/>
<path stroke="#818080" d="&#10;  M 165.7046 71.3413&#10;  A 0.89 0.89 0.0 0 0 164.5539 70.8313&#10;  L 150.0558 76.4257&#10;  A 0.89 0.89 0.0 0 0 149.5458 77.5764&#10;  L 149.8554 78.3787&#10;  A 0.89 0.89 0.0 0 0 151.0061 78.8887&#10;  L 165.5042 73.2943&#10;  A 0.89 0.89 0.0 0 0 166.0142 72.1436&#10;  L 165.7046 71.3413"/>
<path stroke="#818080" d="&#10;  M 344.9026 94.1904&#10;  A 0.41 0.41 0.0 0 0 344.8935 93.6107&#10;  L 337.9421 86.8742&#10;  A 0.41 0.41 0.0 0 0 337.3623 86.8833&#10;  L 331.0574 93.3896&#10;  A 0.41 0.41 0.0 0 0 331.0665 93.9693&#10;  L 338.0179 100.7058&#10;  A 0.41 0.41 0.0 0 0 338.5977 100.6967&#10;  L 344.9026 94.1904"/>
<path stroke="#818080" d="&#10;  M 355.0219 104.4585&#10;  A 0.85 0.85 0.0 0 0 354.9947 103.2567&#10;  L 348.6036 97.1493&#10;  A 0.85 0.85 0.0 0 0 347.4019 97.1766&#10;  L 341.7781 103.0615&#10;  A 0.85 0.85 0.0 0 0 341.8053 104.2633&#10;  L 348.1964 110.3707&#10;  A 0.85 0.85 0.0 0 0 349.3981 110.3434&#10;  L 355.0219 104.4585"/>
<path stroke="#cd9598" d="&#10;  M 217.95 230.54&#10;  C 206.78 225.89 195.26 223.09 183.35 222.50&#10;  C 151.41 220.90 124.46 236.01 104.06 259.89&#10;  Q 99.10 265.70 95.11 272.12&#10;  Q 94.42 273.23 95.73 273.23&#10;  Q 106.81 273.20 117.55 273.25&#10;  C 118.64 273.26 119.80 272.89 120.57 272.07&#10;  C 133.21 258.50 150.47 247.24 168.21 243.20&#10;  C 186.53 239.03 203.21 242.79 218.95 252.58&#10;  Q 219.47 252.90 219.98 252.59&#10;  C 230.56 246.12 241.23 242.07 253.43 241.59&#10;  C 278.23 240.60 301.58 254.47 318.10 271.70&#10;  C 319.33 272.98 320.62 273.17 322.32 273.19&#10;  Q 332.89 273.29 342.85 273.20&#10;  Q 344.62 273.19 343.66 271.69&#10;  C 330.59 251.45 310.80 234.54 287.93 226.80&#10;  C 270.50 220.90 250.42 221.11 233.35 226.27&#10;  Q 226.95 228.20 220.52 230.59&#10;  A 3.53 3.50 45.8 0 1 217.95 230.54"/>
<path stroke="#818080" d="&#10;  M 231.2720 387.5719&#10;  A 0.57 0.57 0.0 0 0 230.7050 386.9989&#10;  L 227.3051 386.9811&#10;  A 0.57 0.57 0.0 0 0 226.7321 387.5481&#10;  L 226.7080 392.1481&#10;  A 0.57 0.57 0.0 0 0 227.2750 392.7211&#10;  L 230.6749 392.7389&#10;  A 0.57 0.57 0.0 0 0 231.2479 392.1719&#10;  L 231.2720 387.5719"/>
<path stroke="#818080" d="&#10;  M 231.2928 396.2098&#10;  A 0.44 0.44 0.0 0 0 230.8605 395.7622&#10;  L 227.2211 395.6987&#10;  A 0.44 0.44 0.0 0 0 226.7735 396.1309&#10;  L 226.6872 401.0702&#10;  A 0.44 0.44 0.0 0 0 227.1195 401.5178&#10;  L 230.7589 401.5813&#10;  A 0.44 0.44 0.0 0 0 231.2065 401.1491&#10;  L 231.2928 396.2098"/>
<path stroke="#818080" d="&#10;  M 218.44 402.80&#10;  A 0.34 0.34 0.0 0 0 218.10 402.48&#10;  L 214.09 402.45&#10;  A 0.34 0.34 0.0 0 0 213.75 402.79&#10;  L 213.74 408.42&#10;  A 0.34 0.34 0.0 0 0 214.09 408.77&#10;  L 218.42 408.70&#10;  A 0.34 0.34 0.0 0 0 218.75 408.35&#10;  L 218.44 402.80"/>
</g>
<path fill="#ffffff" d="&#10;  M 0.00 0.00&#10;  L 440.00 0.00&#10;  L 440.00 440.00&#10;  L 0.00 440.00&#10;  L 0.00 0.00&#10;  Z&#10;  M 427.61 224.24&#10;  A 210.50 210.50 0.0 0 0 217.11 13.74&#10;  A 210.50 210.50 0.0 0 0 6.61 224.24&#10;  A 210.50 210.50 0.0 0 0 217.11 434.74&#10;  A 210.50 210.50 0.0 0 0 427.61 224.24&#10;  Z"/>
<path fill="#833337" d="&#10;  M 427.61 224.24&#10;  A 210.50 210.50 0.0 0 1 217.11 434.74&#10;  A 210.50 210.50 0.0 0 1 6.61 224.24&#10;  A 210.50 210.50 0.0 0 1 217.11 13.74&#10;  A 210.50 210.50 0.0 0 1 427.61 224.24&#10;  Z&#10;  M 421.13 224.24&#10;  A 204.01 204.01 0.0 0 0 217.12 20.23&#10;  A 204.01 204.01 0.0 0 0 13.11 224.24&#10;  A 204.01 204.01 0.0 0 0 217.12 428.25&#10;  A 204.01 204.01 0.0 0 0 421.13 224.24&#10;  Z"/>
<path fill="#ffffff" d="&#10;  M 421.13 224.24&#10;  A 204.01 204.01 0.0 0 1 217.12 428.25&#10;  A 204.01 204.01 0.0 0 1 13.11 224.24&#10;  A 204.01 204.01 0.0 0 1 217.12 20.23&#10;  A 204.01 204.01 0.0 0 1 421.13 224.24&#10;  Z&#10;  M 219.11 55.04&#10;  Q 219.44 54.31 219.78 55.03&#10;  Q 224.77 65.46 234.88 69.07&#10;  Q 235.44 69.27 235.78 68.78&#10;  L 237.42 66.39&#10;  Q 237.82 65.82 237.15 65.61&#10;  Q 227.12 62.47 222.27 51.94&#10;  A 0.49 0.49 0.0 0 1 222.71 51.25&#10;  L 236.24 51.25&#10;  Q 236.72 51.25 236.72 50.77&#10;  L 236.76 48.01&#10;  Q 236.77 47.50 236.26 47.50&#10;  L 221.51 47.51&#10;  Q 221.00 47.51 221.00 47.01&#10;  L 221.00 39.46&#10;  Q 221.01 38.93 221.54 38.95&#10;  L 234.45 39.31&#10;  Q 235.23 39.33 235.23 38.55&#10;  L 235.24 36.04&#10;  Q 235.24 35.34 234.54 35.33&#10;  L 204.01 34.97&#10;  A 0.52 0.52 0.0 0 0 203.49 35.49&#10;  L 203.52 38.51&#10;  Q 203.52 39.00 204.01 39.00&#10;  L 216.79 39.00&#10;  A 0.53 0.53 0.0 0 1 217.32 39.55&#10;  L 217.06 46.50&#10;  Q 217.03 47.27 216.25 47.27&#10;  L 202.51 47.24&#10;  Q 202.02 47.24 202.02 47.74&#10;  L 202.00 50.45&#10;  Q 202.00 50.91 202.46 50.93&#10;  L 215.51 51.33&#10;  Q 216.25 51.35 215.98 52.04&#10;  Q 212.29 61.69 201.09 65.64&#10;  Q 200.92 65.71 200.99 65.88&#10;  Q 201.71 67.47 203.11 68.88&#10;  Q 203.16 68.93 203.22 68.91&#10;  Q 214.53 65.14 219.11 55.04&#10;  Z&#10;  M 166.1060 49.4640&#10;  A 0.27 0.27 0.0 0 0 165.9723 49.1063&#10;  L 155.1255 44.1632&#10;  A 0.27 0.27 0.0 0 0 154.7679 44.2969&#10;  L 153.4740 47.1360&#10;  A 0.27 0.27 0.0 0 0 153.6077 47.4937&#10;  L 164.4545 52.4368&#10;  A 0.27 0.27 0.0 0 0 164.8121 52.3031&#10;  L 166.1060 49.4640&#10;  Z&#10;  M 151.21 61.35&#10;  Q 156.16 57.13 158.88 51.24&#10;  Q 159.32 50.30 158.28 50.30&#10;  L 156.25 50.28&#10;  Q 155.58 50.27 155.22 50.84&#10;  L 151.99 55.89&#10;  Q 151.44 56.76 151.07 55.80&#10;  L 147.64 46.70&#10;  A 1.29 1.28 -19.3 0 0 146.05 45.94&#10;  L 144.85 46.33&#10;  Q 143.59 46.74 144.07 47.97&#10;  L 148.16 58.55&#10;  A 1.25 1.24 -31.0 0 1 147.80 59.96&#10;  Q 141.80 64.93 135.03 68.42&#10;  Q 134.36 68.77 134.98 69.20&#10;  L 137.17 70.71&#10;  Q 137.65 71.04 138.14 70.75&#10;  L 141.44 68.80&#10;  A 0.84 0.84 0.0 0 1 142.64 69.23&#10;  L 148.27 83.99&#10;  Q 148.49 84.58 149.13 84.50&#10;  Q 151.64 84.17 151.63 82.37&#10;  Q 151.63 81.73 152.22 81.50&#10;  L 166.14 76.11&#10;  Q 166.74 75.87 167.28 76.24&#10;  Q 168.81 77.30 170.72 76.06&#10;  Q 171.31 75.67 171.06 75.01&#10;  L 164.34 57.44&#10;  Q 164.10 56.83 163.49 57.06&#10;  L 151.43 61.71&#10;  Q 150.26 62.15 151.21 61.35&#10;  Z&#10;  M 141.4485 52.1873&#10;  A 0.27 0.27 0.0 0 0 141.2668 51.8515&#10;  L 138.2385 50.9487&#10;  A 0.27 0.27 0.0 0 0 137.9027 51.1303&#10;  L 134.4915 62.5727&#10;  A 0.27 0.27 0.0 0 0 134.6732 62.9085&#10;  L 137.7015 63.8113&#10;  A 0.27 0.27 0.0 0 0 138.0373 63.6297&#10;  L 141.4485 52.1873&#10;  Z&#10;  M 302.3136 69.9381&#10;  A 0.90 0.90 0.0 0 0 301.8224 68.7639&#10;  L 269.2920 55.4222&#10;  A 0.90 0.90 0.0 0 0 268.1178 55.9134&#10;  L 267.1464 58.2819&#10;  A 0.90 0.90 0.0 0 0 267.6376 59.4561&#10;  L 300.1680 72.7978&#10;  A 0.90 0.90 0.0 0 0 301.3422 72.3066&#10;  L 302.3136 69.9381&#10;  Z&#10;  M 94.52 84.85&#10;  A 0.42 0.42 0.0 0 1 94.54 84.27&#10;  L 100.26 78.85&#10;  A 0.42 0.42 0.0 0 0 100.28 78.25&#10;  L 98.46 76.35&#10;  A 0.42 0.42 0.0 0 0 97.88 76.33&#10;  L 91.97 81.70&#10;  A 0.42 0.42 0.0 0 1 91.36 81.65&#10;  L 89.70 79.56&#10;  A 0.42 0.42 0.0 0 0 89.08 79.52&#10;  L 86.85 81.69&#10;  A 0.42 0.42 0.0 0 0 86.86 82.30&#10;  L 88.77 84.10&#10;  A 0.42 0.42 0.0 0 1 88.76 84.72&#10;  L 81.77 91.25&#10;  A 0.42 0.42 0.0 0 1 81.18 91.24&#10;  L 79.25 89.20&#10;  A 0.42 0.42 0.0 0 0 78.64 89.19&#10;  L 76.61 91.27&#10;  A 0.42 0.42 0.0 0 0 76.60 91.84&#10;  L 78.35 93.78&#10;  A 0.42 0.42 0.0 0 1 78.33 94.37&#10;  L 72.63 99.71&#10;  A 0.42 0.42 0.0 0 0 72.60 100.30&#10;  L 74.35 102.30&#10;  A 0.42 0.42 0.0 0 0 74.95 102.34&#10;  L 80.82 96.95&#10;  A 0.42 0.42 0.0 0 1 81.41 96.98&#10;  L 83.52 99.35&#10;  A 0.42 0.42 0.0 0 0 84.10 99.39&#10;  L 86.39 97.48&#10;  A 0.42 0.42 0.0 0 0 86.42 96.86&#10;  L 84.10 94.47&#10;  A 0.42 0.42 0.0 0 1 84.11 93.87&#10;  L 91.16 87.26&#10;  A 0.42 0.42 0.0 0 1 91.77 87.30&#10;  L 93.87 89.82&#10;  A 0.42 0.42 0.0 0 0 94.49 89.85&#10;  L 96.63 87.77&#10;  A 0.42 0.42 0.0 0 0 96.65 87.19&#10;  L 94.52 84.85&#10;  Z&#10;  M 351.05 93.33&#10;  L 354.89 89.53&#10;  A 0.88 0.87 -45.2 0 0 354.89 88.28&#10;  L 353.26 86.69&#10;  A 0.77 0.77 0.0 0 0 352.17 86.70&#10;  L 348.17 90.77&#10;  A 0.70 0.69 -45.3 0 1 347.19 90.78&#10;  L 337.90 81.81&#10;  Q 337.46 81.38 337.02 81.82&#10;  L 324.31 94.94&#10;  Q 323.76 95.51 324.37 96.02&#10;  L 326.16 97.52&#10;  Q 326.69 97.96 327.19 97.50&#10;  L 328.00 96.77&#10;  A 0.55 0.54 -43.8 0 1 328.74 96.78&#10;  L 335.49 103.26&#10;  Q 335.85 103.61 335.50 103.96&#10;  L 327.45 112.24&#10;  A 0.79 0.79 0.0 0 0 327.45 113.34&#10;  L 329.20 115.10&#10;  Q 329.67 115.58 330.14 115.10&#10;  L 338.31 106.61&#10;  Q 338.60 106.31 338.91 106.59&#10;  L 345.60 112.89&#10;  A 0.93 0.92 36.6 0 1 345.77 114.02&#10;  Q 344.65 115.96 347.05 117.44&#10;  A 0.79 0.79 0.0 0 0 348.03 117.31&#10;  L 360.67 104.25&#10;  A 0.42 0.42 0.0 0 0 360.66 103.66&#10;  L 351.06 94.46&#10;  A 0.79 0.79 0.0 0 1 351.05 93.33&#10;  Z&#10;  M 127.67 114.19&#10;  C 150.82 124.87 174.63 136.76 194.42 150.09&#10;  Q 200.95 154.49 208.11 160.61&#10;  Q 213.20 164.95 216.67 170.29&#10;  A 0.51 0.51 0.0 0 0 217.52 170.30&#10;  Q 220.93 165.38 225.88 160.89&#10;  Q 233.15 154.31 242.16 148.50&#10;  Q 269.64 130.80 302.17 116.40&#10;  Q 304.61 115.33 306.79 113.99&#10;  Q 307.26 113.70 306.83 113.35&#10;  Q 301.16 108.71 296.80 105.85&#10;  Q 253.25 77.27 201.63 82.49&#10;  C 174.57 85.22 148.69 96.29 127.57 113.31&#10;  A 0.52 0.52 0.0 0 0 127.67 114.19&#10;  Z&#10;  M 106.60 94.17&#10;  Q 110.68 95.77 113.96 97.53&#10;  Q 114.78 97.96 115.19 97.14&#10;  L 115.91 95.72&#10;  Q 116.48 94.61 115.32 94.13&#10;  L 108.02 91.09&#10;  Q 107.56 90.91 107.21 91.25&#10;  Q 106.34 92.12 105.84 93.14&#10;  Q 105.60 93.63 105.25 93.21&#10;  L 101.51 88.69&#10;  A 0.63 0.63 0.0 0 0 100.59 88.64&#10;  L 93.32 95.48&#10;  Q 92.83 95.95 92.44 95.40&#10;  L 90.81 93.16&#10;  A 0.55 0.54 51.3 0 0 90.02 93.07&#10;  L 87.89 94.91&#10;  Q 87.34 95.39 87.86 95.90&#10;  L 89.67 97.70&#10;  Q 90.22 98.25 89.66 98.78&#10;  L 82.34 105.64&#10;  Q 81.76 106.18 82.32 106.73&#10;  L 83.92 108.31&#10;  Q 84.31 108.70 84.71 108.32&#10;  L 91.58 101.85&#10;  A 0.73 0.72 50.0 0 1 92.66 101.95&#10;  C 96.11 106.70 97.28 112.35 95.35 117.78&#10;  Q 94.75 119.49 94.13 121.14&#10;  Q 93.77 122.07 94.75 122.26&#10;  L 96.19 122.54&#10;  Q 97.09 122.72 97.52 121.89&#10;  Q 103.41 110.43 95.34 99.28&#10;  Q 95.00 98.82 95.42 98.42&#10;  L 100.04 94.02&#10;  Q 100.58 93.50 101.05 94.08&#10;  Q 104.25 98.01 107.98 102.77&#10;  Q 109.96 105.30 109.25 106.36&#10;  Q 107.98 108.26 105.47 109.98&#10;  A 0.54 0.54 0.0 0 0 105.55 110.91&#10;  L 107.15 111.65&#10;  Q 107.95 112.02 108.66 111.51&#10;  C 111.89 109.22 114.81 105.92 112.19 102.04&#10;  Q 109.49 98.05 106.32 94.59&#10;  Q 105.57 93.77 106.60 94.17&#10;  Z&#10;  M 91.8820 108.3560&#10;  A 0.61 0.61 0.0 0 0 91.1762 107.8599&#10;  L 88.9301 108.2519&#10;  A 0.61 0.61 0.0 0 0 88.4341 108.9577&#10;  L 89.9780 117.8040&#10;  A 0.61 0.61 0.0 0 0 90.6838 118.3001&#10;  L 92.9299 117.9081&#10;  A 0.61 0.61 0.0 0 0 93.4259 117.2023&#10;  L 91.8820 108.3560&#10;  Z&#10;  M 69.45 151.24&#10;  A 0.65 0.65 0.0 0 1 68.58 151.56&#10;  L 48.51 141.91&#10;  A 0.65 0.65 0.0 0 1 48.21 141.04&#10;  L 51.66 134.04&#10;  A 0.65 0.65 0.0 0 0 51.37 133.17&#10;  L 49.09 132.01&#10;  A 0.65 0.65 0.0 0 0 48.21 132.31&#10;  L 39.39 150.83&#10;  A 0.65 0.65 0.0 0 0 39.71 151.70&#10;  L 42.00 152.75&#10;  A 0.65 0.65 0.0 0 0 42.87 152.42&#10;  L 45.78 145.91&#10;  A 0.65 0.65 0.0 0 1 46.65 145.59&#10;  L 66.84 155.17&#10;  A 0.65 0.65 0.0 0 1 67.14 156.04&#10;  L 63.09 164.39&#10;  A 0.65 0.65 0.0 0 0 63.39 165.25&#10;  L 65.62 166.33&#10;  A 0.65 0.65 0.0 0 0 66.49 166.03&#10;  L 77.07 144.00&#10;  A 0.65 0.65 0.0 0 0 76.76 143.13&#10;  L 74.47 142.03&#10;  A 0.65 0.65 0.0 0 0 73.60 142.34&#10;  L 69.45 151.24&#10;  Z&#10;  M 354.28 185.31&#10;  Q 353.57 182.46 352.67 179.75&#10;  Q 344.20 154.14 326.89 133.12&#10;  Q 326.24 132.34 325.28 132.64&#10;  Q 272.61 148.71 231.39 186.40&#10;  Q 224.16 193.01 217.49 200.85&#10;  A 0.34 0.33 43.4 0 1 216.99 200.86&#10;  Q 172.51 152.19 108.84 132.64&#10;  Q 108.35 132.49 107.95 132.82&#10;  Q 106.61 133.95 105.51 135.36&#10;  Q 89.62 155.71 81.57 179.71&#10;  A 0.36 0.35 -85.4 0 0 81.96 180.18&#10;  C 127.49 172.55 177.21 177.43 215.97 203.94&#10;  A 0.98 0.98 0.0 0 0 217.06 203.95&#10;  C 256.32 178.04 307.67 175.49 353.68 185.92&#10;  Q 354.48 186.10 354.28 185.31&#10;  Z&#10;  M 392.75 153.39&#10;  Q 393.67 153.61 394.29 152.87&#10;  Q 395.90 150.95 397.25 149.04&#10;  A 0.89 0.89 0.0 0 0 397.20 147.94&#10;  L 395.82 146.35&#10;  A 0.68 0.68 0.0 0 0 394.78 146.37&#10;  L 391.46 150.48&#10;  A 0.32 0.32 0.0 0 1 390.92 150.41&#10;  L 388.38 144.85&#10;  Q 388.26 144.58 388.52 144.44&#10;  Q 391.46 142.92 392.18 138.98&#10;  Q 392.27 138.48 391.88 138.15&#10;  Q 391.14 137.52 390.17 137.19&#10;  Q 389.62 137.00 389.34 137.51&#10;  L 387.37 141.02&#10;  A 0.37 0.37 0.0 0 1 386.71 140.99&#10;  L 384.55 136.42&#10;  A 0.83 0.82 65.0 0 0 383.46 136.02&#10;  L 377.38 138.77&#10;  Q 376.60 139.12 377.00 139.88&#10;  L 377.86 141.52&#10;  Q 378.26 142.27 379.02 141.90&#10;  L 382.05 140.45&#10;  Q 382.68 140.16 382.97 140.79&#10;  L 393.69 164.37&#10;  Q 393.89 164.79 393.46 164.98&#10;  L 389.92 166.61&#10;  Q 389.43 166.84 389.62 167.35&#10;  L 390.44 169.52&#10;  Q 390.75 170.32 391.52 169.97&#10;  L 397.85 167.11&#10;  A 0.65 0.64 -24.6 0 0 398.17 166.26&#10;  L 396.20 161.88&#10;  A 0.41 0.40 -5.8 0 1 396.66 161.32&#10;  L 401.20 162.33&#10;  A 0.52 0.52 0.0 0 0 401.83 161.77&#10;  L 401.56 159.08&#10;  Q 401.49 158.41 400.82 158.34&#10;  L 394.91 157.76&#10;  Q 394.37 157.70 394.13 157.22&#10;  L 392.43 153.79&#10;  Q 392.15 153.24 392.75 153.39&#10;  Z&#10;  M 382.58 158.34&#10;  Q 380.70 157.08 379.02 155.35&#10;  A 1.16 1.14 68.3 0 0 378.22 155.00&#10;  Q 377.32 154.97 376.60 155.66&#10;  A 0.65 0.65 0.0 0 1 375.56 155.46&#10;  L 369.62 142.22&#10;  A 0.80 0.80 0.0 0 0 368.45 141.88&#10;  L 366.86 142.93&#10;  Q 366.23 143.35 366.55 144.03&#10;  L 372.49 156.98&#10;  A 0.42 0.41 -25.3 0 1 372.29 157.52&#10;  Q 369.38 158.96 366.49 160.04&#10;  Q 365.41 160.45 363.24 154.20&#10;  A 0.47 0.46 -35.7 0 0 362.43 154.07&#10;  L 360.90 156.07&#10;  Q 360.42 156.69 360.73 157.42&#10;  C 361.74 159.82 363.94 165.40 367.62 163.81&#10;  Q 370.72 162.47 373.46 161.12&#10;  A 0.79 0.78 64.4 0 1 374.53 161.50&#10;  L 380.35 174.39&#10;  Q 380.85 175.49 381.97 175.03&#10;  L 383.02 174.58&#10;  A 1.13 1.12 -24.3 0 0 383.60 173.05&#10;  Q 380.32 166.35 378.08 160.83&#10;  Q 376.77 157.63 379.52 159.74&#10;  Q 383.22 162.58 387.11 164.81&#10;  Q 387.60 165.09 387.95 164.65&#10;  Q 389.15 163.14 388.25 161.27&#10;  Q 384.29 153.02 380.85 144.94&#10;  Q 380.52 144.16 379.74 144.50&#10;  L 377.97 145.25&#10;  A 0.60 0.60 0.0 0 0 377.66 146.05&#10;  L 383.07 157.92&#10;  Q 383.57 159.00 382.58 158.34&#10;  Z&#10;  M 33.15 157.55&#10;  A 0.62 0.62 0.0 0 0 32.91 158.28&#10;  L 33.70 160.42&#10;  A 0.62 0.62 0.0 0 0 34.60 160.73&#10;  L 41.05 156.77&#10;  A 0.62 0.62 0.0 0 0 41.25 155.92&#10;  L 39.98 153.81&#10;  A 0.62 0.62 0.0 0 0 39.11 153.62&#10;  L 33.15 157.55&#10;  Z&#10;  M 41.71 164.49&#10;  A 0.50 0.50 0.0 0 0 41.55 165.10&#10;  L 42.59 167.37&#10;  A 0.50 0.50 0.0 0 0 43.33 167.58&#10;  L 49.71 163.21&#10;  A 0.50 0.50 0.0 0 0 49.86 162.53&#10;  L 48.43 160.25&#10;  A 0.50 0.50 0.0 0 0 47.72 160.11&#10;  L 41.71 164.49&#10;  Z&#10;  M 57.17 161.86&#10;  A 0.60 0.60 0.0 0 0 56.48 161.64&#10;  L 54.02 162.52&#10;  A 0.60 0.60 0.0 0 0 53.72 163.42&#10;  L 61.40 174.75&#10;  A 0.60 0.60 0.0 0 0 62.14 174.96&#10;  L 64.61 173.83&#10;  A 0.60 0.60 0.0 0 0 64.85 172.94&#10;  L 57.17 161.86&#10;  Z&#10;  M 190.79 300.99&#10;  Q 204.60 307.73 214.33 317.59&#10;  A 0.87 0.87 0.0 0 0 215.50 317.65&#10;  C 238.30 298.83 265.33 289.93 294.40 297.36&#10;  Q 311.88 301.83 328.02 313.10&#10;  Q 328.47 313.42 328.81 312.99&#10;  Q 364.08 267.72 359.05 209.52&#10;  A 1.48 1.47 10.0 0 0 358.19 208.30&#10;  C 312.41 187.23 261.01 198.07 217.97 222.71&#10;  A 1.34 1.34 0.0 0 1 216.56 222.66&#10;  C 191.42 206.17 162.06 195.70 131.91 194.36&#10;  Q 103.83 193.10 76.49 203.12&#10;  Q 75.99 203.30 75.92 203.82&#10;  Q 68.78 258.59 98.92 304.20&#10;  Q 99.35 304.85 100.05 304.50&#10;  C 128.77 290.10 161.66 286.78 190.79 300.99&#10;  Z&#10;  M 213.35 339.53&#10;  A 0.73 0.73 0.0 0 1 212.33 339.53&#10;  Q 197.99 325.34 180.70 317.86&#10;  C 159.10 308.51 134.43 310.10 113.28 320.56&#10;  A 0.75 0.75 0.0 0 0 113.06 321.73&#10;  Q 115.94 324.89 118.93 327.69&#10;  C 175.32 380.50 260.75 379.68 316.36 326.74&#10;  A 0.51 0.51 0.0 0 0 316.25 325.92&#10;  Q 303.48 319.16 288.49 316.19&#10;  C 260.67 310.67 233.72 319.65 213.35 339.53&#10;  Z&#10;  M 320.65 348.42&#10;  Q 320.73 348.16 321.02 348.02&#10;  A 0.70 0.69 41.2 0 0 320.93 346.73&#10;  L 317.19 345.53&#10;  Q 316.24 345.23 315.75 346.10&#10;  L 315.10 347.27&#10;  Q 314.61 348.14 315.55 348.45&#10;  L 318.67 349.49&#10;  A 0.60 0.60 0.0 0 1 318.85 350.53&#10;  L 312.99 355.02&#10;  Q 312.49 355.41 312.88 355.90&#10;  L 314.10 357.44&#10;  A 0.68 0.68 0.0 0 0 315.06 357.55&#10;  L 329.56 345.98&#10;  Q 330.29 345.40 329.77 344.63&#10;  L 329.09 343.61&#10;  A 0.95 0.94 54.9 0 0 327.75 343.37&#10;  Q 324.38 345.86 321.10 348.72&#10;  Q 320.31 349.41 320.65 348.42&#10;  Z&#10;  M 121.91 349.02&#10;  A 0.53 0.53 0.0 0 0 121.17 349.45&#10;  L 120.93 351.55&#10;  A 0.53 0.53 0.0 0 1 120.07 351.91&#10;  L 109.39 343.57&#10;  A 0.53 0.53 0.0 0 0 108.64 343.66&#10;  L 104.80 348.68&#10;  A 0.53 0.53 0.0 0 0 104.90 349.42&#10;  L 106.70 350.80&#10;  A 0.53 0.53 0.0 0 0 107.43 350.71&#10;  L 109.41 348.22&#10;  A 0.53 0.53 0.0 0 1 110.15 348.13&#10;  L 128.66 362.62&#10;  A 0.53 0.53 0.0 0 1 128.75 363.37&#10;  L 127.08 365.45&#10;  A 0.53 0.53 0.0 0 0 127.13 366.16&#10;  L 128.88 367.83&#10;  A 0.53 0.53 0.0 0 0 129.66 367.78&#10;  L 133.47 363.10&#10;  A 0.53 0.53 0.0 0 0 133.39 362.35&#10;  L 123.88 354.85&#10;  A 0.53 0.53 0.0 0 1 123.69 354.31&#10;  L 124.51 350.65&#10;  A 0.53 0.53 0.0 0 0 124.21 350.05&#10;  L 121.91 349.02&#10;  Z&#10;  M 334.79 354.06&#10;  L 335.30 351.47&#10;  A 0.30 0.30 0.0 0 0 335.06 351.12&#10;  L 327.15 349.55&#10;  A 1.69 1.53 11.2 0 0 325.19 350.72&#10;  L 325.16 350.90&#10;  A 1.69 1.53 11.2 0 0 326.52 352.73&#10;  L 334.44 354.30&#10;  A 0.30 0.30 0.0 0 0 334.79 354.06&#10;  Z&#10;  M 110.53 360.89&#10;  L 106.78 363.21&#10;  A 0.75 0.75 0.0 0 1 105.67 362.78&#10;  L 104.86 359.95&#10;  Q 104.72 359.43 104.18 359.48&#10;  L 102.28 359.63&#10;  Q 101.47 359.70 101.70 360.47&#10;  L 102.72 363.95&#10;  Q 102.90 364.59 102.26 364.75&#10;  Q 96.85 366.13 92.28 364.51&#10;  A 0.49 0.49 0.0 0 0 91.63 364.89&#10;  L 91.24 367.30&#10;  Q 91.14 367.87 91.71 368.01&#10;  C 100.52 370.21 108.52 367.25 115.10 361.37&#10;  A 1.05 1.04 44.1 0 0 115.07 359.79&#10;  L 110.54 356.01&#10;  A 0.53 0.52 -28.9 0 1 110.81 355.09&#10;  Q 112.29 354.88 113.30 353.95&#10;  Q 113.59 353.69 113.29 353.44&#10;  Q 112.31 352.64 111.74 351.46&#10;  Q 111.53 351.03 111.13 351.29&#10;  Q 105.00 355.25 98.10 355.56&#10;  Q 97.40 355.59 97.53 356.28&#10;  L 97.90 358.31&#10;  Q 98.09 359.31 99.08 359.09&#10;  L 106.59 357.44&#10;  Q 107.13 357.32 107.56 357.66&#10;  L 110.58 360.07&#10;  Q 111.14 360.51 110.53 360.89&#10;  Z&#10;  M 322.00 361.24&#10;  L 322.01 355.88&#10;  Q 322.01 354.74 320.88 354.92&#10;  L 319.83 355.08&#10;  Q 318.49 355.29 318.67 356.63&#10;  Q 319.20 360.48 318.58 364.09&#10;  Q 318.46 364.81 319.17 364.97&#10;  L 320.71 365.30&#10;  Q 321.67 365.50 321.78 364.53&#10;  L 321.89 363.59&#10;  Q 321.99 362.77 322.71 363.17&#10;  Q 326.44 365.26 330.33 366.43&#10;  Q 330.86 366.59 330.79 367.14&#10;  Q 330.21 372.13 327.79 376.37&#10;  A 0.34 0.34 0.0 0 0 327.98 376.86&#10;  L 330.34 377.58&#10;  Q 330.80 377.72 331.03 377.30&#10;  Q 333.49 372.80 334.01 367.85&#10;  Q 334.07 367.32 334.60 367.37&#10;  Q 339.45 367.81 344.31 366.39&#10;  Q 344.76 366.26 344.75 365.79&#10;  L 344.74 362.73&#10;  A 0.35 0.35 0.0 0 0 344.26 362.41&#10;  Q 340.09 364.12 334.88 363.81&#10;  Q 334.38 363.78 334.34 363.28&#10;  Q 334.06 359.50 332.70 355.49&#10;  Q 332.16 353.90 330.66 354.67&#10;  L 330.19 354.91&#10;  Q 328.98 355.53 329.51 356.79&#10;  Q 330.66 359.54 330.79 362.70&#10;  Q 330.82 363.29 330.26 363.12&#10;  Q 327.18 362.16 324.37 360.40&#10;  A 0.75 0.75 0.0 0 0 323.58 360.39&#10;  Q 322.96 360.76 322.54 361.40&#10;  Q 322.00 362.22 322.00 361.24&#10;  Z&#10;  M 314.74 371.06&#10;  L 323.76 382.37&#10;  Q 324.24 382.96 324.85 382.50&#10;  L 326.19 381.48&#10;  Q 326.76 381.04 326.31 380.48&#10;  L 316.55 368.26&#10;  Q 315.63 367.10 316.94 367.80&#10;  L 320.79 369.83&#10;  A 0.15 0.15 0.0 0 0 321.01 369.70&#10;  L 320.99 367.20&#10;  Q 320.99 366.73 320.55 366.57&#10;  L 312.73 363.60&#10;  A 0.62 0.62 0.0 0 1 312.54 362.55&#10;  L 314.50 360.85&#10;  Q 315.23 360.21 314.61 359.47&#10;  L 313.71 358.39&#10;  Q 313.12 357.68 312.44 358.32&#10;  L 310.72 359.95&#10;  Q 310.26 360.39 309.87 359.89&#10;  L 306.01 354.99&#10;  A 0.82 0.82 0.0 0 0 304.84 354.88&#10;  L 303.52 356.03&#10;  Q 302.99 356.48 303.44 357.02&#10;  L 307.35 361.70&#10;  Q 307.76 362.20 307.26 362.61&#10;  Q 306.35 363.36 305.48 363.90&#10;  Q 303.26 365.24 305.78 367.18&#10;  A 1.04 1.03 31.6 0 0 307.34 366.81&#10;  Q 307.79 365.89 308.91 365.58&#10;  Q 309.44 365.43 309.68 365.93&#10;  Q 312.47 371.89 313.54 378.19&#10;  A 1.20 1.18 -81.6 0 0 314.18 379.06&#10;  L 316.36 380.16&#10;  Q 317.06 380.51 316.91 379.74&#10;  Q 316.09 375.50 314.37 371.27&#10;  Q 313.80 369.88 314.74 371.06&#10;  Z&#10;  M 122.84 368.87&#10;  L 119.30 372.95&#10;  A 0.93 0.92 43.8 0 1 117.92 372.97&#10;  Q 117.12 372.12 116.03 371.77&#10;  Q 115.71 371.66 115.52 371.94&#10;  Q 114.81 372.99 115.11 374.19&#10;  Q 115.23 374.64 115.59 374.93&#10;  C 117.33 376.29 119.44 377.66 121.34 375.44&#10;  Q 124.54 371.70 127.25 368.28&#10;  A 0.64 0.63 -51.8 0 0 127.15 367.39&#10;  L 118.16 360.34&#10;  A 0.51 0.51 0.0 0 0 117.43 360.43&#10;  Q 112.75 366.49 107.46 373.18&#10;  Q 106.42 374.51 105.88 375.92&#10;  A 2.59 2.58 -58.2 0 0 106.53 378.72&#10;  Q 109.93 381.89 113.55 384.33&#10;  C 115.71 385.78 118.21 383.95 119.59 382.32&#10;  Q 120.61 381.12 119.69 379.85&#10;  L 119.44 379.51&#10;  Q 118.64 378.39 117.90 379.55&#10;  Q 117.06 380.86 115.71 381.44&#10;  Q 115.16 381.68 114.68 381.31&#10;  L 109.73 377.41&#10;  A 1.03 1.02 -52.0 0 1 109.56 375.97&#10;  L 117.96 365.26&#10;  A 0.83 0.82 -52.3 0 1 119.10 365.11&#10;  L 122.72 367.80&#10;  Q 123.35 368.28 122.84 368.87&#10;  Z&#10;  M 285.17 383.60&#10;  L 286.29 384.29&#10;  Q 287.01 384.75 287.36 383.97&#10;  L 288.51 381.39&#10;  A 0.56 0.55 -67.5 0 0 288.21 380.65&#10;  Q 281.01 377.84 275.29 372.58&#10;  Q 274.45 371.80 273.57 372.54&#10;  L 272.51 373.46&#10;  A 0.82 0.82 0.0 0 0 272.49 374.69&#10;  Q 276.98 378.79 282.82 382.26&#10;  A 0.28 0.28 0.0 0 1 282.77 382.77&#10;  L 263.66 389.62&#10;  A 0.39 0.39 0.0 0 1 263.15 389.13&#10;  Q 265.07 382.95 265.88 376.88&#10;  Q 265.98 376.17 265.26 376.19&#10;  L 262.54 376.29&#10;  Q 261.92 376.31 261.89 376.93&#10;  Q 261.57 385.13 257.42 392.03&#10;  Q 257.02 392.71 257.73 393.04&#10;  L 259.78 393.99&#10;  A 0.90 0.90 0.0 0 0 260.92 393.65&#10;  L 261.90 392.07&#10;  Q 262.33 391.38 262.71 392.10&#10;  L 263.09 392.82&#10;  A 0.67 0.66 66.3 0 0 263.90 393.14&#10;  L 268.72 391.43&#10;  Q 269.26 391.24 269.37 391.80&#10;  Q 271.46 401.81 263.98 407.77&#10;  Q 263.33 408.29 264.03 408.74&#10;  L 265.70 409.82&#10;  A 1.20 1.19 -49.3 0 0 267.14 409.71&#10;  C 273.05 404.52 274.52 397.79 272.67 390.26&#10;  Q 272.61 389.99 272.86 389.90&#10;  L 280.97 387.08&#10;  Q 281.19 387.00 281.27 387.22&#10;  Q 283.12 392.34 283.97 397.99&#10;  C 284.24 399.75 283.45 400.59 281.81 400.92&#10;  Q 279.73 401.32 277.90 402.10&#10;  Q 277.67 402.20 277.83 402.39&#10;  L 279.76 404.65&#10;  Q 279.95 404.87 280.23 404.80&#10;  C 283.40 404.00 288.48 402.59 287.71 398.06&#10;  Q 286.65 391.75 284.21 384.35&#10;  Q 283.65 382.65 285.17 383.60&#10;  Z&#10;  M 162.13 401.60&#10;  Q 161.35 401.32 161.62 400.53&#10;  L 169.87 376.25&#10;  A 0.91 0.90 18.5 0 0 169.30 375.11&#10;  L 167.62 374.54&#10;  A 0.93 0.93 0.0 0 0 166.44 375.12&#10;  L 158.09 399.63&#10;  Q 157.87 400.28 157.22 400.05&#10;  L 149.83 397.39&#10;  A 0.70 0.69 -70.9 0 1 149.41 396.52&#10;  L 155.48 378.70&#10;  Q 155.64 378.22 155.16 378.08&#10;  L 152.77 377.39&#10;  A 0.61 0.60 -72.3 0 0 152.03 377.78&#10;  L 144.85 398.96&#10;  A 0.48 0.47 -71.4 0 0 145.15 399.57&#10;  L 168.36 407.40&#10;  Q 168.79 407.54 168.79 407.99&#10;  Q 168.79 408.76 168.51 409.54&#10;  Q 168.25 410.28 169.00 410.52&#10;  L 170.82 411.11&#10;  Q 171.56 411.35 171.81 410.62&#10;  L 179.89 386.91&#10;  Q 180.08 386.34 179.50 386.16&#10;  L 177.21 385.46&#10;  Q 176.70 385.31 176.53 385.80&#10;  L 170.48 403.52&#10;  A 1.00 1.00 0.0 0 1 169.20 404.13&#10;  L 162.13 401.60&#10;  Z&#10;  M 210.1629 387.2092&#10;  A 0.78 0.78 0.0 0 0 209.8979 386.1384&#10;  L 205.2570 383.3388&#10;  A 0.78 0.78 0.0 0 0 204.1862 383.6038&#10;  L 203.2771 385.1108&#10;  A 0.78 0.78 0.0 0 0 203.5421 386.1816&#10;  L 208.1830 388.9812&#10;  A 0.78 0.78 0.0 0 0 209.2538 388.7162&#10;  L 210.1629 387.2092&#10;  Z&#10;  M 221.77 409.01&#10;  L 221.39 400.17&#10;  A 0.70 0.70 0.0 0 0 220.66 399.50&#10;  L 218.80 399.57&#10;  Q 217.74 399.61 217.74 398.55&#10;  L 217.73 394.14&#10;  Q 217.73 393.25 218.62 393.26&#10;  L 221.54 393.28&#10;  Q 222.63 393.29 222.53 392.21&#10;  L 222.45 391.25&#10;  A 1.16 1.16 0.0 0 0 221.25 390.19&#10;  L 218.27 390.29&#10;  Q 217.73 390.31 217.73 389.77&#10;  L 217.77 384.46&#10;  Q 217.77 383.90 217.22 383.87&#10;  L 215.40 383.74&#10;  Q 214.74 383.69 214.74 384.35&#10;  L 214.75 389.49&#10;  A 0.75 0.74 90.0 0 1 214.01 390.24&#10;  L 210.08 390.26&#10;  Q 209.42 390.26 209.45 390.92&#10;  L 209.52 392.65&#10;  Q 209.55 393.37 210.27 393.34&#10;  L 213.96 393.21&#10;  Q 214.73 393.18 214.73 393.96&#10;  L 214.76 398.62&#10;  Q 214.77 399.51 213.88 399.52&#10;  L 211.36 399.54&#10;  Q 210.77 399.55 210.77 400.14&#10;  L 210.75 413.86&#10;  Q 210.75 414.48 211.36 414.48&#10;  L 212.99 414.50&#10;  Q 213.74 414.51 213.75 413.76&#10;  L 213.76 412.23&#10;  A 0.52 0.52 0.0 0 1 214.28 411.72&#10;  L 221.02 411.74&#10;  Q 221.82 411.74 221.41 412.44&#10;  L 220.21 414.48&#10;  Q 219.75 415.27 220.51 415.76&#10;  L 221.39 416.34&#10;  Q 222.50 417.07 223.15 415.91&#10;  Q 225.98 410.85 226.48 405.33&#10;  Q 226.53 404.86 226.99 404.82&#10;  L 230.81 404.44&#10;  Q 231.50 404.37 231.50 405.06&#10;  L 231.55 412.74&#10;  Q 231.55 413.54 230.76 413.54&#10;  L 228.50 413.52&#10;  Q 227.23 413.52 227.59 414.73&#10;  L 227.77 415.32&#10;  Q 228.12 416.46 229.31 416.44&#10;  C 231.14 416.42 234.32 416.39 234.38 413.93&#10;  Q 234.69 399.28 234.24 384.52&#10;  Q 234.23 384.00 233.71 384.00&#10;  L 224.43 384.01&#10;  Q 223.70 384.01 223.71 384.74&#10;  Q 223.83 394.53 223.69 403.12&#10;  Q 223.64 406.12 222.75 409.13&#10;  Q 221.90 412.02 221.77 409.01&#10;  Z&#10;  M 203.89 393.18&#10;  A 0.65 0.65 0.0 0 0 203.09 393.32&#10;  L 201.80 394.79&#10;  A 0.65 0.65 0.0 0 0 201.96 395.79&#10;  L 207.05 398.70&#10;  A 0.65 0.65 0.0 0 0 207.93 398.47&#10;  L 208.98 396.74&#10;  A 0.65 0.65 0.0 0 0 208.73 395.83&#10;  L 203.89 393.18&#10;  Z&#10;  M 209.67 405.24&#10;  A 0.79 0.79 0.0 0 0 209.37 404.30&#10;  L 208.00 403.39&#10;  A 0.79 0.79 0.0 0 0 206.83 403.74&#10;  L 202.43 414.23&#10;  A 0.79 0.79 0.0 0 0 202.83 415.25&#10;  L 204.61 416.08&#10;  A 0.79 0.79 0.0 0 0 205.68 415.64&#10;  L 209.67 405.24&#10;  Z"/>
<path fill="#020101" d="&#10;  M 219.11 55.04&#10;  Q 214.53 65.14 203.22 68.91&#10;  Q 203.16 68.93 203.11 68.88&#10;  Q 201.71 67.47 200.99 65.88&#10;  Q 200.92 65.71 201.09 65.64&#10;  Q 212.29 61.69 215.98 52.04&#10;  Q 216.25 51.35 215.51 51.33&#10;  L 202.46 50.93&#10;  Q 202.00 50.91 202.00 50.45&#10;  L 202.02 47.74&#10;  Q 202.02 47.24 202.51 47.24&#10;  L 216.25 47.27&#10;  Q 217.03 47.27 217.06 46.50&#10;  L 217.32 39.55&#10;  A 0.53 0.53 0.0 0 0 216.79 39.00&#10;  L 204.01 39.00&#10;  Q 203.52 39.00 203.52 38.51&#10;  L 203.49 35.49&#10;  A 0.52 0.52 0.0 0 1 204.01 34.97&#10;  L 234.54 35.33&#10;  Q 235.24 35.34 235.24 36.04&#10;  L 235.23 38.55&#10;  Q 235.23 39.33 234.45 39.31&#10;  L 221.54 38.95&#10;  Q 221.01 38.93 221.00 39.46&#10;  L 221.00 47.01&#10;  Q 221.00 47.51 221.51 47.51&#10;  L 236.26 47.50&#10;  Q 236.77 47.50 236.76 48.01&#10;  L 236.72 50.77&#10;  Q 236.72 51.25 236.24 51.25&#10;  L 222.71 51.25&#10;  A 0.49 0.49 0.0 0 0 222.27 51.94&#10;  Q 227.12 62.47 237.15 65.61&#10;  Q 237.82 65.82 237.42 66.39&#10;  L 235.78 68.78&#10;  Q 235.44 69.27 234.88 69.07&#10;  Q 224.77 65.46 219.78 55.03&#10;  Q 219.44 54.31 219.11 55.04&#10;  Z"/>
<rect fill="#020101" x="-6.23" y="-1.83" transform="translate(159.79,48.30) rotate(24.5)" width="12.46" height="3.66" rx="0.27"/>
<path fill="#020101" d="&#10;  M 151.43 61.71&#10;  L 163.49 57.06&#10;  Q 164.10 56.83 164.34 57.44&#10;  L 171.06 75.01&#10;  Q 171.31 75.67 170.72 76.06&#10;  Q 168.81 77.30 167.28 76.24&#10;  Q 166.74 75.87 166.14 76.11&#10;  L 152.22 81.50&#10;  Q 151.63 81.73 151.63 82.37&#10;  Q 151.64 84.17 149.13 84.50&#10;  Q 148.49 84.58 148.27 83.99&#10;  L 142.64 69.23&#10;  A 0.84 0.84 0.0 0 0 141.44 68.80&#10;  L 138.14 70.75&#10;  Q 137.65 71.04 137.17 70.71&#10;  L 134.98 69.20&#10;  Q 134.36 68.77 135.03 68.42&#10;  Q 141.80 64.93 147.80 59.96&#10;  A 1.25 1.24 -31.0 0 0 148.16 58.55&#10;  L 144.07 47.97&#10;  Q 143.59 46.74 144.85 46.33&#10;  L 146.05 45.94&#10;  A 1.29 1.28 -19.3 0 1 147.64 46.70&#10;  L 151.07 55.80&#10;  Q 151.44 56.76 151.99 55.89&#10;  L 155.22 50.84&#10;  Q 155.58 50.27 156.25 50.28&#10;  L 158.28 50.30&#10;  Q 159.32 50.30 158.88 51.24&#10;  Q 156.16 57.13 151.21 61.35&#10;  Q 150.26 62.15 151.43 61.71&#10;  Z&#10;  M 161.9832 61.6141&#10;  A 0.78 0.78 0.0 0 0 160.9747 61.1672&#10;  L 146.2341 66.8551&#10;  A 0.78 0.78 0.0 0 0 145.7872 67.8636&#10;  L 146.0968 68.6659&#10;  A 0.78 0.78 0.0 0 0 147.1053 69.1128&#10;  L 161.8459 63.4249&#10;  A 0.78 0.78 0.0 0 0 162.2928 62.4164&#10;  L 161.9832 61.6141&#10;  Z&#10;  M 163.7611 66.3654&#10;  A 0.75 0.75 0.0 0 0 162.7922 65.9340&#10;  L 148.0976 71.5747&#10;  A 0.75 0.75 0.0 0 0 147.6662 72.5437&#10;  L 148.0389 73.5146&#10;  A 0.75 0.75 0.0 0 0 149.0078 73.9460&#10;  L 163.7024 68.3053&#10;  A 0.75 0.75 0.0 0 0 164.1338 67.3363&#10;  L 163.7611 66.3654&#10;  Z&#10;  M 165.7046 71.3413&#10;  A 0.89 0.89 0.0 0 0 164.5539 70.8313&#10;  L 150.0558 76.4257&#10;  A 0.89 0.89 0.0 0 0 149.5458 77.5764&#10;  L 149.8554 78.3787&#10;  A 0.89 0.89 0.0 0 0 151.0061 78.8887&#10;  L 165.5042 73.2943&#10;  A 0.89 0.89 0.0 0 0 166.0142 72.1436&#10;  L 165.7046 71.3413&#10;  Z"/>
<rect fill="#020101" x="-1.85" y="-6.24" transform="translate(137.97,57.38) rotate(16.6)" width="3.70" height="12.48" rx="0.27"/>
<rect fill="#020101" x="-18.48" y="-2.18" transform="translate(284.73,64.11) rotate(22.3)" width="36.96" height="4.36" rx="0.90"/>
<rect fill="#ffffff" x="-8.68" y="-1.21" transform="translate(154.04,65.14) rotate(-21.1)" width="17.36" height="2.42" rx="0.78"/>
<rect fill="#ffffff" x="-8.62" y="-1.27" transform="translate(155.90,69.94) rotate(-21.0)" width="17.24" height="2.54" rx="0.75"/>
<rect fill="#ffffff" x="-8.66" y="-1.32" transform="translate(157.78,74.86) rotate(-21.1)" width="17.32" height="2.64" rx="0.89"/>
<path fill="#020101" d="&#10;  M 94.52 84.85&#10;  L 96.65 87.19&#10;  A 0.42 0.42 0.0 0 1 96.63 87.77&#10;  L 94.49 89.85&#10;  A 0.42 0.42 0.0 0 1 93.87 89.82&#10;  L 91.77 87.30&#10;  A 0.42 0.42 0.0 0 0 91.16 87.26&#10;  L 84.11 93.87&#10;  A 0.42 0.42 0.0 0 0 84.10 94.47&#10;  L 86.42 96.86&#10;  A 0.42 0.42 0.0 0 1 86.39 97.48&#10;  L 84.10 99.39&#10;  A 0.42 0.42 0.0 0 1 83.52 99.35&#10;  L 81.41 96.98&#10;  A 0.42 0.42 0.0 0 0 80.82 96.95&#10;  L 74.95 102.34&#10;  A 0.42 0.42 0.0 0 1 74.35 102.30&#10;  L 72.60 100.30&#10;  A 0.42 0.42 0.0 0 1 72.63 99.71&#10;  L 78.33 94.37&#10;  A 0.42 0.42 0.0 0 0 78.35 93.78&#10;  L 76.60 91.84&#10;  A 0.42 0.42 0.0 0 1 76.61 91.27&#10;  L 78.64 89.19&#10;  A 0.42 0.42 0.0 0 1 79.25 89.20&#10;  L 81.18 91.24&#10;  A 0.42 0.42 0.0 0 0 81.77 91.25&#10;  L 88.76 84.72&#10;  A 0.42 0.42 0.0 0 0 88.77 84.10&#10;  L 86.86 82.30&#10;  A 0.42 0.42 0.0 0 1 86.85 81.69&#10;  L 89.08 79.52&#10;  A 0.42 0.42 0.0 0 1 89.70 79.56&#10;  L 91.36 81.65&#10;  A 0.42 0.42 0.0 0 0 91.97 81.70&#10;  L 97.88 76.33&#10;  A 0.42 0.42 0.0 0 1 98.46 76.35&#10;  L 100.28 78.25&#10;  A 0.42 0.42 0.0 0 1 100.26 78.85&#10;  L 94.54 84.27&#10;  A 0.42 0.42 0.0 0 0 94.52 84.85&#10;  Z"/>
<path fill="#020101" d="&#10;  M 351.05 93.33&#10;  A 0.79 0.79 0.0 0 0 351.06 94.46&#10;  L 360.66 103.66&#10;  A 0.42 0.42 0.0 0 1 360.67 104.25&#10;  L 348.03 117.31&#10;  A 0.79 0.79 0.0 0 1 347.05 117.44&#10;  Q 344.65 115.96 345.77 114.02&#10;  A 0.93 0.92 36.6 0 0 345.60 112.89&#10;  L 338.91 106.59&#10;  Q 338.60 106.31 338.31 106.61&#10;  L 330.14 115.10&#10;  Q 329.67 115.58 329.20 115.10&#10;  L 327.45 113.34&#10;  A 0.79 0.79 0.0 0 1 327.45 112.24&#10;  L 335.50 103.96&#10;  Q 335.85 103.61 335.49 103.26&#10;  L 328.74 96.78&#10;  A 0.55 0.54 -43.8 0 0 328.00 96.77&#10;  L 327.19 97.50&#10;  Q 326.69 97.96 326.16 97.52&#10;  L 324.37 96.02&#10;  Q 323.76 95.51 324.31 94.94&#10;  L 337.02 81.82&#10;  Q 337.46 81.38 337.90 81.81&#10;  L 347.19 90.78&#10;  A 0.70 0.69 -45.3 0 0 348.17 90.77&#10;  L 352.17 86.70&#10;  A 0.77 0.77 0.0 0 1 353.26 86.69&#10;  L 354.89 88.28&#10;  A 0.88 0.87 -45.2 0 1 354.89 89.53&#10;  L 351.05 93.33&#10;  Z&#10;  M 344.9026 94.1904&#10;  A 0.41 0.41 0.0 0 0 344.8935 93.6107&#10;  L 337.9421 86.8742&#10;  A 0.41 0.41 0.0 0 0 337.3623 86.8833&#10;  L 331.0574 93.3896&#10;  A 0.41 0.41 0.0 0 0 331.0665 93.9693&#10;  L 338.0179 100.7058&#10;  A 0.41 0.41 0.0 0 0 338.5977 100.6967&#10;  L 344.9026 94.1904&#10;  Z&#10;  M 355.0219 104.4585&#10;  A 0.85 0.85 0.0 0 0 354.9947 103.2567&#10;  L 348.6036 97.1493&#10;  A 0.85 0.85 0.0 0 0 347.4019 97.1766&#10;  L 341.7781 103.0615&#10;  A 0.85 0.85 0.0 0 0 341.8053 104.2633&#10;  L 348.1964 110.3707&#10;  A 0.85 0.85 0.0 0 0 349.3981 110.3434&#10;  L 355.0219 104.4585&#10;  Z"/>
<path fill="#9a2b30" d="&#10;  M 194.42 150.09&#10;  C 174.63 136.76 150.82 124.87 127.67 114.19&#10;  A 0.52 0.52 0.0 0 1 127.57 113.31&#10;  C 148.69 96.29 174.57 85.22 201.63 82.49&#10;  Q 253.25 77.27 296.80 105.85&#10;  Q 301.16 108.71 306.83 113.35&#10;  Q 307.26 113.70 306.79 113.99&#10;  Q 304.61 115.33 302.17 116.40&#10;  Q 269.64 130.80 242.16 148.50&#10;  Q 233.15 154.31 225.88 160.89&#10;  Q 220.93 165.38 217.52 170.30&#10;  A 0.51 0.51 0.0 0 1 216.67 170.29&#10;  Q 213.20 164.95 208.11 160.61&#10;  Q 200.95 154.49 194.42 150.09&#10;  Z"/>
<rect fill="#ffffff" x="-5.25" y="-4.94" transform="translate(337.98,93.79) rotate(44.1)" width="10.50" height="9.88" rx="0.41"/>
<path fill="#020101" d="&#10;  M 106.32 94.59&#10;  Q 109.49 98.05 112.19 102.04&#10;  C 114.81 105.92 111.89 109.22 108.66 111.51&#10;  Q 107.95 112.02 107.15 111.65&#10;  L 105.55 110.91&#10;  A 0.54 0.54 0.0 0 1 105.47 109.98&#10;  Q 107.98 108.26 109.25 106.36&#10;  Q 109.96 105.30 107.98 102.77&#10;  Q 104.25 98.01 101.05 94.08&#10;  Q 100.58 93.50 100.04 94.02&#10;  L 95.42 98.42&#10;  Q 95.00 98.82 95.34 99.28&#10;  Q 103.41 110.43 97.52 121.89&#10;  Q 97.09 122.72 96.19 122.54&#10;  L 94.75 122.26&#10;  Q 93.77 122.07 94.13 121.14&#10;  Q 94.75 119.49 95.35 117.78&#10;  C 97.28 112.35 96.11 106.70 92.66 101.95&#10;  A 0.73 0.72 50.0 0 0 91.58 101.85&#10;  L 84.71 108.32&#10;  Q 84.31 108.70 83.92 108.31&#10;  L 82.32 106.73&#10;  Q 81.76 106.18 82.34 105.64&#10;  L 89.66 98.78&#10;  Q 90.22 98.25 89.67 97.70&#10;  L 87.86 95.90&#10;  Q 87.34 95.39 87.89 94.91&#10;  L 90.02 93.07&#10;  A 0.55 0.54 51.3 0 1 90.81 93.16&#10;  L 92.44 95.40&#10;  Q 92.83 95.95 93.32 95.48&#10;  L 100.59 88.64&#10;  A 0.63 0.63 0.0 0 1 101.51 88.69&#10;  L 105.25 93.21&#10;  Q 105.60 93.63 105.84 93.14&#10;  Q 106.34 92.12 107.21 91.25&#10;  Q 107.56 90.91 108.02 91.09&#10;  L 115.32 94.13&#10;  Q 116.48 94.61 115.91 95.72&#10;  L 115.19 97.14&#10;  Q 114.78 97.96 113.96 97.53&#10;  Q 110.68 95.77 106.60 94.17&#10;  Q 105.57 93.77 106.32 94.59&#10;  Z"/>
<rect fill="#ffffff" x="-5.27" y="-4.92" transform="translate(348.40,103.76) rotate(43.7)" width="10.54" height="9.84" rx="0.85"/>
<rect fill="#020101" x="-1.75" y="-5.10" transform="translate(90.93,113.08) rotate(-9.9)" width="3.50" height="10.20" rx="0.61"/>
<path fill="#020101" d="&#10;  M 69.45 151.24&#10;  L 73.60 142.34&#10;  A 0.65 0.65 0.0 0 1 74.47 142.03&#10;  L 76.76 143.13&#10;  A 0.65 0.65 0.0 0 1 77.07 144.00&#10;  L 66.49 166.03&#10;  A 0.65 0.65 0.0 0 1 65.62 166.33&#10;  L 63.39 165.25&#10;  A 0.65 0.65 0.0 0 1 63.09 164.39&#10;  L 67.14 156.04&#10;  A 0.65 0.65 0.0 0 0 66.84 155.17&#10;  L 46.65 145.59&#10;  A 0.65 0.65 0.0 0 0 45.78 145.91&#10;  L 42.87 152.42&#10;  A 0.65 0.65 0.0 0 1 42.00 152.75&#10;  L 39.71 151.70&#10;  A 0.65 0.65 0.0 0 1 39.39 150.83&#10;  L 48.21 132.31&#10;  A 0.65 0.65 0.0 0 1 49.09 132.01&#10;  L 51.37 133.17&#10;  A 0.65 0.65 0.0 0 1 51.66 134.04&#10;  L 48.21 141.04&#10;  A 0.65 0.65 0.0 0 0 48.51 141.91&#10;  L 68.58 151.56&#10;  A 0.65 0.65 0.0 0 0 69.45 151.24&#10;  Z"/>
<path fill="#9a2b30" d="&#10;  M 354.28 185.31&#10;  Q 354.48 186.10 353.68 185.92&#10;  C 307.67 175.49 256.32 178.04 217.06 203.95&#10;  A 0.98 0.98 0.0 0 1 215.97 203.94&#10;  C 177.21 177.43 127.49 172.55 81.96 180.18&#10;  A 0.36 0.35 -85.4 0 1 81.57 179.71&#10;  Q 89.62 155.71 105.51 135.36&#10;  Q 106.61 133.95 107.95 132.82&#10;  Q 108.35 132.49 108.84 132.64&#10;  Q 172.51 152.19 216.99 200.86&#10;  A 0.34 0.33 43.4 0 0 217.49 200.85&#10;  Q 224.16 193.01 231.39 186.40&#10;  Q 272.61 148.71 325.28 132.64&#10;  Q 326.24 132.34 326.89 133.12&#10;  Q 344.20 154.14 352.67 179.75&#10;  Q 353.57 182.46 354.28 185.31&#10;  Z"/>
<path fill="#020101" d="&#10;  M 392.43 153.79&#10;  L 394.13 157.22&#10;  Q 394.37 157.70 394.91 157.76&#10;  L 400.82 158.34&#10;  Q 401.49 158.41 401.56 159.08&#10;  L 401.83 161.77&#10;  A 0.52 0.52 0.0 0 1 401.20 162.33&#10;  L 396.66 161.32&#10;  A 0.41 0.40 -5.8 0 0 396.20 161.88&#10;  L 398.17 166.26&#10;  A 0.65 0.64 -24.6 0 1 397.85 167.11&#10;  L 391.52 169.97&#10;  Q 390.75 170.32 390.44 169.52&#10;  L 389.62 167.35&#10;  Q 389.43 166.84 389.92 166.61&#10;  L 393.46 164.98&#10;  Q 393.89 164.79 393.69 164.37&#10;  L 382.97 140.79&#10;  Q 382.68 140.16 382.05 140.45&#10;  L 379.02 141.90&#10;  Q 378.26 142.27 377.86 141.52&#10;  L 377.00 139.88&#10;  Q 376.60 139.12 377.38 138.77&#10;  L 383.46 136.02&#10;  A 0.83 0.82 65.0 0 1 384.55 136.42&#10;  L 386.71 140.99&#10;  A 0.37 0.37 0.0 0 0 387.37 141.02&#10;  L 389.34 137.51&#10;  Q 389.62 137.00 390.17 137.19&#10;  Q 391.14 137.52 391.88 138.15&#10;  Q 392.27 138.48 392.18 138.98&#10;  Q 391.46 142.92 388.52 144.44&#10;  Q 388.26 144.58 388.38 144.85&#10;  L 390.92 150.41&#10;  A 0.32 0.32 0.0 0 0 391.46 150.48&#10;  L 394.78 146.37&#10;  A 0.68 0.68 0.0 0 1 395.82 146.35&#10;  L 397.20 147.94&#10;  A 0.89 0.89 0.0 0 1 397.25 149.04&#10;  Q 395.90 150.95 394.29 152.87&#10;  Q 393.67 153.61 392.75 153.39&#10;  Q 392.15 153.24 392.43 153.79&#10;  Z"/>
<path fill="#020101" d="&#10;  M 383.07 157.92&#10;  L 377.66 146.05&#10;  A 0.60 0.60 0.0 0 1 377.97 145.25&#10;  L 379.74 144.50&#10;  Q 380.52 144.16 380.85 144.94&#10;  Q 384.29 153.02 388.25 161.27&#10;  Q 389.15 163.14 387.95 164.65&#10;  Q 387.60 165.09 387.11 164.81&#10;  Q 383.22 162.58 379.52 159.74&#10;  Q 376.77 157.63 378.08 160.83&#10;  Q 380.32 166.35 383.60 173.05&#10;  A 1.13 1.12 -24.3 0 1 383.02 174.58&#10;  L 381.97 175.03&#10;  Q 380.85 175.49 380.35 174.39&#10;  L 374.53 161.50&#10;  A 0.79 0.78 64.4 0 0 373.46 161.12&#10;  Q 370.72 162.47 367.62 163.81&#10;  C 363.94 165.40 361.74 159.82 360.73 157.42&#10;  Q 360.42 156.69 360.90 156.07&#10;  L 362.43 154.07&#10;  A 0.47 0.46 -35.7 0 1 363.24 154.20&#10;  Q 365.41 160.45 366.49 160.04&#10;  Q 369.38 158.96 372.29 157.52&#10;  A 0.42 0.41 -25.3 0 0 372.49 156.98&#10;  L 366.55 144.03&#10;  Q 366.23 143.35 366.86 142.93&#10;  L 368.45 141.88&#10;  A 0.80 0.80 0.0 0 1 369.62 142.22&#10;  L 375.56 155.46&#10;  A 0.65 0.65 0.0 0 0 376.60 155.66&#10;  Q 377.32 154.97 378.22 155.00&#10;  A 1.16 1.14 68.3 0 1 379.02 155.35&#10;  Q 380.70 157.08 382.58 158.34&#10;  Q 383.57 159.00 383.07 157.92&#10;  Z"/>
<path fill="#020101" d="&#10;  M 33.15 157.55&#10;  L 39.11 153.62&#10;  A 0.62 0.62 0.0 0 1 39.98 153.81&#10;  L 41.25 155.92&#10;  A 0.62 0.62 0.0 0 1 41.05 156.77&#10;  L 34.60 160.73&#10;  A 0.62 0.62 0.0 0 1 33.70 160.42&#10;  L 32.91 158.28&#10;  A 0.62 0.62 0.0 0 1 33.15 157.55&#10;  Z"/>
<path fill="#020101" d="&#10;  M 41.71 164.49&#10;  L 47.72 160.11&#10;  A 0.50 0.50 0.0 0 1 48.43 160.25&#10;  L 49.86 162.53&#10;  A 0.50 0.50 0.0 0 1 49.71 163.21&#10;  L 43.33 167.58&#10;  A 0.50 0.50 0.0 0 1 42.59 167.37&#10;  L 41.55 165.10&#10;  A 0.50 0.50 0.0 0 1 41.71 164.49&#10;  Z"/>
<path fill="#020101" d="&#10;  M 57.17 161.86&#10;  L 64.85 172.94&#10;  A 0.60 0.60 0.0 0 1 64.61 173.83&#10;  L 62.14 174.96&#10;  A 0.60 0.60 0.0 0 1 61.40 174.75&#10;  L 53.72 163.42&#10;  A 0.60 0.60 0.0 0 1 54.02 162.52&#10;  L 56.48 161.64&#10;  A 0.60 0.60 0.0 0 1 57.17 161.86&#10;  Z"/>
<path fill="#9a2b30" d="&#10;  M 190.79 300.99&#10;  C 161.66 286.78 128.77 290.10 100.05 304.50&#10;  Q 99.35 304.85 98.92 304.20&#10;  Q 68.78 258.59 75.92 203.82&#10;  Q 75.99 203.30 76.49 203.12&#10;  Q 103.83 193.10 131.91 194.36&#10;  C 162.06 195.70 191.42 206.17 216.56 222.66&#10;  A 1.34 1.34 0.0 0 0 217.97 222.71&#10;  C 261.01 198.07 312.41 187.23 358.19 208.30&#10;  A 1.48 1.47 10.0 0 1 359.05 209.52&#10;  Q 364.08 267.72 328.81 312.99&#10;  Q 328.47 313.42 328.02 313.10&#10;  Q 311.88 301.83 294.40 297.36&#10;  C 265.33 289.93 238.30 298.83 215.50 317.65&#10;  A 0.87 0.87 0.0 0 1 214.33 317.59&#10;  Q 204.60 307.73 190.79 300.99&#10;  Z&#10;  M 217.95 230.54&#10;  C 206.78 225.89 195.26 223.09 183.35 222.50&#10;  C 151.41 220.90 124.46 236.01 104.06 259.89&#10;  Q 99.10 265.70 95.11 272.12&#10;  Q 94.42 273.23 95.73 273.23&#10;  Q 106.81 273.20 117.55 273.25&#10;  C 118.64 273.26 119.80 272.89 120.57 272.07&#10;  C 133.21 258.50 150.47 247.24 168.21 243.20&#10;  C 186.53 239.03 203.21 242.79 218.95 252.58&#10;  Q 219.47 252.90 219.98 252.59&#10;  C 230.56 246.12 241.23 242.07 253.43 241.59&#10;  C 278.23 240.60 301.58 254.47 318.10 271.70&#10;  C 319.33 272.98 320.62 273.17 322.32 273.19&#10;  Q 332.89 273.29 342.85 273.20&#10;  Q 344.62 273.19 343.66 271.69&#10;  C 330.59 251.45 310.80 234.54 287.93 226.80&#10;  C 270.50 220.90 250.42 221.11 233.35 226.27&#10;  Q 226.95 228.20 220.52 230.59&#10;  A 3.53 3.50 45.8 0 1 217.95 230.54&#10;  Z"/>
<path fill="#ffffff" d="&#10;  M 183.35 222.50&#10;  C 195.26 223.09 206.78 225.89 217.95 230.54&#10;  A 3.53 3.50 45.8 0 0 220.52 230.59&#10;  Q 226.95 228.20 233.35 226.27&#10;  C 250.42 221.11 270.50 220.90 287.93 226.80&#10;  C 310.80 234.54 330.59 251.45 343.66 271.69&#10;  Q 344.62 273.19 342.85 273.20&#10;  Q 332.89 273.29 322.32 273.19&#10;  C 320.62 273.17 319.33 272.98 318.10 271.70&#10;  C 301.58 254.47 278.23 240.60 253.43 241.59&#10;  C 241.23 242.07 230.56 246.12 219.98 252.59&#10;  Q 219.47 252.90 218.95 252.58&#10;  C 203.21 242.79 186.53 239.03 168.21 243.20&#10;  C 150.47 247.24 133.21 258.50 120.57 272.07&#10;  C 119.80 272.89 118.64 273.26 117.55 273.25&#10;  Q 106.81 273.20 95.73 273.23&#10;  Q 94.42 273.23 95.11 272.12&#10;  Q 99.10 265.70 104.06 259.89&#10;  C 124.46 236.01 151.41 220.90 183.35 222.50&#10;  Z"/>
<path fill="#9a2b30" d="&#10;  M 213.35 339.53&#10;  C 233.72 319.65 260.67 310.67 288.49 316.19&#10;  Q 303.48 319.16 316.25 325.92&#10;  A 0.51 0.51 0.0 0 1 316.36 326.74&#10;  C 260.75 379.68 175.32 380.50 118.93 327.69&#10;  Q 115.94 324.89 113.06 321.73&#10;  A 0.75 0.75 0.0 0 1 113.28 320.56&#10;  C 134.43 310.10 159.10 308.51 180.70 317.86&#10;  Q 197.99 325.34 212.33 339.53&#10;  A 0.73 0.73 0.0 0 0 213.35 339.53&#10;  Z"/>
<path fill="#020101" d="&#10;  M 321.10 348.72&#10;  Q 324.38 345.86 327.75 343.37&#10;  A 0.95 0.94 54.9 0 1 329.09 343.61&#10;  L 329.77 344.63&#10;  Q 330.29 345.40 329.56 345.98&#10;  L 315.06 357.55&#10;  A 0.68 0.68 0.0 0 1 314.10 357.44&#10;  L 312.88 355.90&#10;  Q 312.49 355.41 312.99 355.02&#10;  L 318.85 350.53&#10;  A 0.60 0.60 0.0 0 0 318.67 349.49&#10;  L 315.55 348.45&#10;  Q 314.61 348.14 315.10 347.27&#10;  L 315.75 346.10&#10;  Q 316.24 345.23 317.19 345.53&#10;  L 320.93 346.73&#10;  A 0.70 0.69 41.2 0 1 321.02 348.02&#10;  Q 320.73 348.16 320.65 348.42&#10;  Q 320.31 349.41 321.10 348.72&#10;  Z"/>
<path fill="#020101" d="&#10;  M 121.91 349.02&#10;  L 124.21 350.05&#10;  A 0.53 0.53 0.0 0 1 124.51 350.65&#10;  L 123.69 354.31&#10;  A 0.53 0.53 0.0 0 0 123.88 354.85&#10;  L 133.39 362.35&#10;  A 0.53 0.53 0.0 0 1 133.47 363.10&#10;  L 129.66 367.78&#10;  A 0.53 0.53 0.0 0 1 128.88 367.83&#10;  L 127.13 366.16&#10;  A 0.53 0.53 0.0 0 1 127.08 365.45&#10;  L 128.75 363.37&#10;  A 0.53 0.53 0.0 0 0 128.66 362.62&#10;  L 110.15 348.13&#10;  A 0.53 0.53 0.0 0 0 109.41 348.22&#10;  L 107.43 350.71&#10;  A 0.53 0.53 0.0 0 1 106.70 350.80&#10;  L 104.90 349.42&#10;  A 0.53 0.53 0.0 0 1 104.80 348.68&#10;  L 108.64 343.66&#10;  A 0.53 0.53 0.0 0 1 109.39 343.57&#10;  L 120.07 351.91&#10;  A 0.53 0.53 0.0 0 0 120.93 351.55&#10;  L 121.17 349.45&#10;  A 0.53 0.53 0.0 0 1 121.91 349.02&#10;  Z"/>
<path fill="#020101" d="&#10;  M 334.79 354.06&#10;  A 0.30 0.30 0.0 0 1 334.44 354.30&#10;  L 326.52 352.73&#10;  A 1.69 1.53 11.2 0 1 325.16 350.90&#10;  L 325.19 350.72&#10;  A 1.69 1.53 11.2 0 1 327.15 349.55&#10;  L 335.06 351.12&#10;  A 0.30 0.30 0.0 0 1 335.30 351.47&#10;  L 334.79 354.06&#10;  Z"/>
<path fill="#020101" d="&#10;  M 110.58 360.07&#10;  L 107.56 357.66&#10;  Q 107.13 357.32 106.59 357.44&#10;  L 99.08 359.09&#10;  Q 98.09 359.31 97.90 358.31&#10;  L 97.53 356.28&#10;  Q 97.40 355.59 98.10 355.56&#10;  Q 105.00 355.25 111.13 351.29&#10;  Q 111.53 351.03 111.74 351.46&#10;  Q 112.31 352.64 113.29 353.44&#10;  Q 113.59 353.69 113.30 353.95&#10;  Q 112.29 354.88 110.81 355.09&#10;  A 0.53 0.52 -28.9 0 0 110.54 356.01&#10;  L 115.07 359.79&#10;  A 1.05 1.04 44.1 0 1 115.10 361.37&#10;  C 108.52 367.25 100.52 370.21 91.71 368.01&#10;  Q 91.14 367.87 91.24 367.30&#10;  L 91.63 364.89&#10;  A 0.49 0.49 0.0 0 1 92.28 364.51&#10;  Q 96.85 366.13 102.26 364.75&#10;  Q 102.90 364.59 102.72 363.95&#10;  L 101.70 360.47&#10;  Q 101.47 359.70 102.28 359.63&#10;  L 104.18 359.48&#10;  Q 104.72 359.43 104.86 359.95&#10;  L 105.67 362.78&#10;  A 0.75 0.75 0.0 0 0 106.78 363.21&#10;  L 110.53 360.89&#10;  Q 111.14 360.51 110.58 360.07&#10;  Z"/>
<path fill="#020101" d="&#10;  M 322.54 361.40&#10;  Q 322.96 360.76 323.58 360.39&#10;  A 0.75 0.75 0.0 0 1 324.37 360.40&#10;  Q 327.18 362.16 330.26 363.12&#10;  Q 330.82 363.29 330.79 362.70&#10;  Q 330.66 359.54 329.51 356.79&#10;  Q 328.98 355.53 330.19 354.91&#10;  L 330.66 354.67&#10;  Q 332.16 353.90 332.70 355.49&#10;  Q 334.06 359.50 334.34 363.28&#10;  Q 334.38 363.78 334.88 363.81&#10;  Q 340.09 364.12 344.26 362.41&#10;  A 0.35 0.35 0.0 0 1 344.74 362.73&#10;  L 344.75 365.79&#10;  Q 344.76 366.26 344.31 366.39&#10;  Q 339.45 367.81 334.60 367.37&#10;  Q 334.07 367.32 334.01 367.85&#10;  Q 333.49 372.80 331.03 377.30&#10;  Q 330.80 377.72 330.34 377.58&#10;  L 327.98 376.86&#10;  A 0.34 0.34 0.0 0 1 327.79 376.37&#10;  Q 330.21 372.13 330.79 367.14&#10;  Q 330.86 366.59 330.33 366.43&#10;  Q 326.44 365.26 322.71 363.17&#10;  Q 321.99 362.77 321.89 363.59&#10;  L 321.78 364.53&#10;  Q 321.67 365.50 320.71 365.30&#10;  L 319.17 364.97&#10;  Q 318.46 364.81 318.58 364.09&#10;  Q 319.20 360.48 318.67 356.63&#10;  Q 318.49 355.29 319.83 355.08&#10;  L 320.88 354.92&#10;  Q 322.01 354.74 322.01 355.88&#10;  L 322.00 361.24&#10;  Q 322.00 362.22 322.54 361.40&#10;  Z"/>
<path fill="#020101" d="&#10;  M 314.37 371.27&#10;  Q 316.09 375.50 316.91 379.74&#10;  Q 317.06 380.51 316.36 380.16&#10;  L 314.18 379.06&#10;  A 1.20 1.18 -81.6 0 1 313.54 378.19&#10;  Q 312.47 371.89 309.68 365.93&#10;  Q 309.44 365.43 308.91 365.58&#10;  Q 307.79 365.89 307.34 366.81&#10;  A 1.04 1.03 31.6 0 1 305.78 367.18&#10;  Q 303.26 365.24 305.48 363.90&#10;  Q 306.35 363.36 307.26 362.61&#10;  Q 307.76 362.20 307.35 361.70&#10;  L 303.44 357.02&#10;  Q 302.99 356.48 303.52 356.03&#10;  L 304.84 354.88&#10;  A 0.82 0.82 0.0 0 1 306.01 354.99&#10;  L 309.87 359.89&#10;  Q 310.26 360.39 310.72 359.95&#10;  L 312.44 358.32&#10;  Q 313.12 357.68 313.71 358.39&#10;  L 314.61 359.47&#10;  Q 315.23 360.21 314.50 360.85&#10;  L 312.54 362.55&#10;  A 0.62 0.62 0.0 0 0 312.73 363.60&#10;  L 320.55 366.57&#10;  Q 320.99 366.73 320.99 367.20&#10;  L 321.01 369.70&#10;  A 0.15 0.15 0.0 0 1 320.79 369.83&#10;  L 316.94 367.80&#10;  Q 315.63 367.10 316.55 368.26&#10;  L 326.31 380.48&#10;  Q 326.76 381.04 326.19 381.48&#10;  L 324.85 382.50&#10;  Q 324.24 382.96 323.76 382.37&#10;  L 314.74 371.06&#10;  Q 313.80 369.88 314.37 371.27&#10;  Z"/>
<path fill="#020101" d="&#10;  M 122.84 368.87&#10;  Q 123.35 368.28 122.72 367.80&#10;  L 119.10 365.11&#10;  A 0.83 0.82 -52.3 0 0 117.96 365.26&#10;  L 109.56 375.97&#10;  A 1.03 1.02 -52.0 0 0 109.73 377.41&#10;  L 114.68 381.31&#10;  Q 115.16 381.68 115.71 381.44&#10;  Q 117.06 380.86 117.90 379.55&#10;  Q 118.64 378.39 119.44 379.51&#10;  L 119.69 379.85&#10;  Q 120.61 381.12 119.59 382.32&#10;  C 118.21 383.95 115.71 385.78 113.55 384.33&#10;  Q 109.93 381.89 106.53 378.72&#10;  A 2.59 2.58 -58.2 0 1 105.88 375.92&#10;  Q 106.42 374.51 107.46 373.18&#10;  Q 112.75 366.49 117.43 360.43&#10;  A 0.51 0.51 0.0 0 1 118.16 360.34&#10;  L 127.15 367.39&#10;  A 0.64 0.63 -51.8 0 1 127.25 368.28&#10;  Q 124.54 371.70 121.34 375.44&#10;  C 119.44 377.66 117.33 376.29 115.59 374.93&#10;  Q 115.23 374.64 115.11 374.19&#10;  Q 114.81 372.99 115.52 371.94&#10;  Q 115.71 371.66 116.03 371.77&#10;  Q 117.12 372.12 117.92 372.97&#10;  A 0.93 0.92 43.8 0 0 119.30 372.95&#10;  L 122.84 368.87&#10;  Z"/>
<path fill="#020101" d="&#10;  M 285.17 383.60&#10;  Q 283.65 382.65 284.21 384.35&#10;  Q 286.65 391.75 287.71 398.06&#10;  C 288.48 402.59 283.40 404.00 280.23 404.80&#10;  Q 279.95 404.87 279.76 404.65&#10;  L 277.83 402.39&#10;  Q 277.67 402.20 277.90 402.10&#10;  Q 279.73 401.32 281.81 400.92&#10;  C 283.45 400.59 284.24 399.75 283.97 397.99&#10;  Q 283.12 392.34 281.27 387.22&#10;  Q 281.19 387.00 280.97 387.08&#10;  L 272.86 389.90&#10;  Q 272.61 389.99 272.67 390.26&#10;  C 274.52 397.79 273.05 404.52 267.14 409.71&#10;  A 1.20 1.19 -49.3 0 1 265.70 409.82&#10;  L 264.03 408.74&#10;  Q 263.33 408.29 263.98 407.77&#10;  Q 271.46 401.81 269.37 391.80&#10;  Q 269.26 391.24 268.72 391.43&#10;  L 263.90 393.14&#10;  A 0.67 0.66 66.3 0 1 263.09 392.82&#10;  L 262.71 392.10&#10;  Q 262.33 391.38 261.90 392.07&#10;  L 260.92 393.65&#10;  A 0.90 0.90 0.0 0 1 259.78 393.99&#10;  L 257.73 393.04&#10;  Q 257.02 392.71 257.42 392.03&#10;  Q 261.57 385.13 261.89 376.93&#10;  Q 261.92 376.31 262.54 376.29&#10;  L 265.26 376.19&#10;  Q 265.98 376.17 265.88 376.88&#10;  Q 265.07 382.95 263.15 389.13&#10;  A 0.39 0.39 0.0 0 0 263.66 389.62&#10;  L 282.77 382.77&#10;  A 0.28 0.28 0.0 0 0 282.82 382.26&#10;  Q 276.98 378.79 272.49 374.69&#10;  A 0.82 0.82 0.0 0 1 272.51 373.46&#10;  L 273.57 372.54&#10;  Q 274.45 371.80 275.29 372.58&#10;  Q 281.01 377.84 288.21 380.65&#10;  A 0.56 0.55 -67.5 0 1 288.51 381.39&#10;  L 287.36 383.97&#10;  Q 287.01 384.75 286.29 384.29&#10;  L 285.17 383.60&#10;  Z"/>
<path fill="#020101" d="&#10;  M 162.13 401.60&#10;  L 169.20 404.13&#10;  A 1.00 1.00 0.0 0 0 170.48 403.52&#10;  L 176.53 385.80&#10;  Q 176.70 385.31 177.21 385.46&#10;  L 179.50 386.16&#10;  Q 180.08 386.34 179.89 386.91&#10;  L 171.81 410.62&#10;  Q 171.56 411.35 170.82 411.11&#10;  L 169.00 410.52&#10;  Q 168.25 410.28 168.51 409.54&#10;  Q 168.79 408.76 168.79 407.99&#10;  Q 168.79 407.54 168.36 407.40&#10;  L 145.15 399.57&#10;  A 0.48 0.47 -71.4 0 1 144.85 398.96&#10;  L 152.03 377.78&#10;  A 0.61 0.60 -72.3 0 1 152.77 377.39&#10;  L 155.16 378.08&#10;  Q 155.64 378.22 155.48 378.70&#10;  L 149.41 396.52&#10;  A 0.70 0.69 -70.9 0 0 149.83 397.39&#10;  L 157.22 400.05&#10;  Q 157.87 400.28 158.09 399.63&#10;  L 166.44 375.12&#10;  A 0.93 0.93 0.0 0 1 167.62 374.54&#10;  L 169.30 375.11&#10;  A 0.91 0.90 18.5 0 1 169.87 376.25&#10;  L 161.62 400.53&#10;  Q 161.35 401.32 162.13 401.60&#10;  Z"/>
<rect fill="#020101" x="-3.49" y="-1.66" transform="translate(206.72,386.16) rotate(31.1)" width="6.98" height="3.32" rx="0.78"/>
<path fill="#020101" d="&#10;  M 221.77 409.01&#10;  Q 221.90 412.02 222.75 409.13&#10;  Q 223.64 406.12 223.69 403.12&#10;  Q 223.83 394.53 223.71 384.74&#10;  Q 223.70 384.01 224.43 384.01&#10;  L 233.71 384.00&#10;  Q 234.23 384.00 234.24 384.52&#10;  Q 234.69 399.28 234.38 413.93&#10;  C 234.32 416.39 231.14 416.42 229.31 416.44&#10;  Q 228.12 416.46 227.77 415.32&#10;  L 227.59 414.73&#10;  Q 227.23 413.52 228.50 413.52&#10;  L 230.76 413.54&#10;  Q 231.55 413.54 231.55 412.74&#10;  L 231.50 405.06&#10;  Q 231.50 404.37 230.81 404.44&#10;  L 226.99 404.82&#10;  Q 226.53 404.86 226.48 405.33&#10;  Q 225.98 410.85 223.15 415.91&#10;  Q 222.50 417.07 221.39 416.34&#10;  L 220.51 415.76&#10;  Q 219.75 415.27 220.21 414.48&#10;  L 221.41 412.44&#10;  Q 221.82 411.74 221.02 411.74&#10;  L 214.28 411.72&#10;  A 0.52 0.52 0.0 0 0 213.76 412.23&#10;  L 213.75 413.76&#10;  Q 213.74 414.51 212.99 414.50&#10;  L 211.36 414.48&#10;  Q 210.75 414.48 210.75 413.86&#10;  L 210.77 400.14&#10;  Q 210.77 399.55 211.36 399.54&#10;  L 213.88 399.52&#10;  Q 214.77 399.51 214.76 398.62&#10;  L 214.73 393.96&#10;  Q 214.73 393.18 213.96 393.21&#10;  L 210.27 393.34&#10;  Q 209.55 393.37 209.52 392.65&#10;  L 209.45 390.92&#10;  Q 209.42 390.26 210.08 390.26&#10;  L 214.01 390.24&#10;  A 0.75 0.74 90.0 0 0 214.75 389.49&#10;  L 214.74 384.35&#10;  Q 214.74 383.69 215.40 383.74&#10;  L 217.22 383.87&#10;  Q 217.77 383.90 217.77 384.46&#10;  L 217.73 389.77&#10;  Q 217.73 390.31 218.27 390.29&#10;  L 221.25 390.19&#10;  A 1.16 1.16 0.0 0 1 222.45 391.25&#10;  L 222.53 392.21&#10;  Q 222.63 393.29 221.54 393.28&#10;  L 218.62 393.26&#10;  Q 217.73 393.25 217.73 394.14&#10;  L 217.74 398.55&#10;  Q 217.74 399.61 218.80 399.57&#10;  L 220.66 399.50&#10;  A 0.70 0.70 0.0 0 1 221.39 400.17&#10;  L 221.77 409.01&#10;  Z&#10;  M 231.2720 387.5719&#10;  A 0.57 0.57 0.0 0 0 230.7050 386.9989&#10;  L 227.3051 386.9811&#10;  A 0.57 0.57 0.0 0 0 226.7321 387.5481&#10;  L 226.7080 392.1481&#10;  A 0.57 0.57 0.0 0 0 227.2750 392.7211&#10;  L 230.6749 392.7389&#10;  A 0.57 0.57 0.0 0 0 231.2479 392.1719&#10;  L 231.2720 387.5719&#10;  Z&#10;  M 231.2928 396.2098&#10;  A 0.44 0.44 0.0 0 0 230.8605 395.7622&#10;  L 227.2211 395.6987&#10;  A 0.44 0.44 0.0 0 0 226.7735 396.1309&#10;  L 226.6872 401.0702&#10;  A 0.44 0.44 0.0 0 0 227.1195 401.5178&#10;  L 230.7589 401.5813&#10;  A 0.44 0.44 0.0 0 0 231.2065 401.1491&#10;  L 231.2928 396.2098&#10;  Z&#10;  M 218.44 402.80&#10;  A 0.34 0.34 0.0 0 0 218.10 402.48&#10;  L 214.09 402.45&#10;  A 0.34 0.34 0.0 0 0 213.75 402.79&#10;  L 213.74 408.42&#10;  A 0.34 0.34 0.0 0 0 214.09 408.77&#10;  L 218.42 408.70&#10;  A 0.34 0.34 0.0 0 0 218.75 408.35&#10;  L 218.44 402.80&#10;  Z"/>
<rect fill="#ffffff" x="-2.27" y="-2.87" transform="translate(228.99,389.86) rotate(0.3)" width="4.54" height="5.74" rx="0.57"/>
<path fill="#020101" d="&#10;  M 203.89 393.18&#10;  L 208.73 395.83&#10;  A 0.65 0.65 0.0 0 1 208.98 396.74&#10;  L 207.93 398.47&#10;  A 0.65 0.65 0.0 0 1 207.05 398.70&#10;  L 201.96 395.79&#10;  A 0.65 0.65 0.0 0 1 201.80 394.79&#10;  L 203.09 393.32&#10;  A 0.65 0.65 0.0 0 1 203.89 393.18&#10;  Z"/>
<rect fill="#ffffff" x="-2.26" y="-2.91" transform="translate(228.99,398.64) rotate(1.0)" width="4.52" height="5.82" rx="0.44"/>
<path fill="#ffffff" d="&#10;  M 218.44 402.80&#10;  L 218.75 408.35&#10;  A 0.34 0.34 0.0 0 1 218.42 408.70&#10;  L 214.09 408.77&#10;  A 0.34 0.34 0.0 0 1 213.74 408.42&#10;  L 213.75 402.79&#10;  A 0.34 0.34 0.0 0 1 214.09 402.45&#10;  L 218.10 402.48&#10;  A 0.34 0.34 0.0 0 1 218.44 402.80&#10;  Z"/>
<path fill="#020101" d="&#10;  M 209.67 405.24&#10;  L 205.68 415.64&#10;  A 0.79 0.79 0.0 0 1 204.61 416.08&#10;  L 202.83 415.25&#10;  A 0.79 0.79 0.0 0 1 202.43 414.23&#10;  L 206.83 403.74&#10;  A 0.79 0.79 0.0 0 1 208.00 403.39&#10;  L 209.37 404.30&#10;  A 0.79 0.79 0.0 0 1 209.67 405.24&#10;  Z"/>
</svg>